<svg width="32.000000" height="32.000000" viewBox="0 0 32 32" fill="none" xmlns="http://www.w3.org/2000/svg" xmlns:xlink="http://www.w3.org/1999/xlink">
	<desc>
			Created with Pixso.
	</desc>
	<defs/>
	<path id="Vector" d="M32 16C32 24.83 24.83 32 16 32C7.16 32 0 24.83 0 16C0 7.16 7.16 0 16 0C24.83 0 32 7.16 32 16Z" fill="#F49B33" fill-opacity="1.000000" fill-rule="evenodd"/>
	<path id="Vector" d="M21.89 12.73C21.73 10.72 20.01 10.02 17.83 9.79L17.88 7.01L16.19 6.98L16.14 9.69C15.7 9.68 15.24 9.68 14.79 9.68L14.84 6.96L13.15 6.93L13.1 9.71C12.73 9.71 12.37 9.71 12.02 9.7L12.02 9.69L9.69 9.65L9.66 11.46C9.66 11.46 10.91 11.45 10.89 11.48C11.57 11.49 11.79 11.89 11.85 12.24L11.79 15.4C11.84 15.4 11.9 15.41 11.97 15.42L11.79 15.42L11.72 19.85C11.68 20.07 11.55 20.41 11.07 20.4C11.09 20.42 9.84 20.38 9.84 20.38L9.47 22.39L11.67 22.43C12.08 22.44 12.48 22.45 12.88 22.46L12.83 25.27L14.52 25.3L14.57 22.52C15.03 22.54 15.48 22.55 15.92 22.56L15.87 25.33L17.56 25.35L17.61 22.55C20.46 22.43 22.46 21.75 22.76 19.08C22.99 16.94 22 15.96 20.39 15.54C21.38 15.07 22.01 14.2 21.89 12.73ZM19.42 18.7C19.38 20.8 15.79 20.5 14.64 20.48L14.71 16.75C15.85 16.77 19.46 16.5 19.42 18.7ZM18.72 13.43C18.69 15.34 15.69 15.06 14.74 15.05L14.8 11.67C15.75 11.68 18.76 11.43 18.72 13.43Z" fill="#FFFFFF" fill-opacity="1.000000" fill-rule="nonzero"/>
</svg>
