<svg width="31.999878" height="30.580811" viewBox="0 0 31.9999 30.5808" fill="none" xmlns="http://www.w3.org/2000/svg" xmlns:xlink="http://www.w3.org/1999/xlink">
	<desc>
			Created with Pixso.
	</desc>
	<defs/>
	<path id="Vector" d="M21.51 3.2C21.51 4.97 19.04 6.41 16 6.41C12.95 6.41 10.48 4.97 10.48 3.2C10.48 1.43 12.95 0 16 0C19.04 0 21.51 1.43 21.51 3.2Z" fill="#E6007A" fill-opacity="1.000000" fill-rule="evenodd"/>
	<path id="Vector" d="M21.51 27.37C21.51 29.14 19.04 30.58 16 30.58C12.95 30.58 10.48 29.14 10.48 27.37C10.48 25.6 12.95 24.16 16 24.16C19.04 24.16 21.51 25.6 21.51 27.37Z" fill="#E6007A" fill-opacity="1.000000" fill-rule="evenodd"/>
	<path id="Vector" d="M8.29 4.47C9.82 5.36 9.83 8.21 8.31 10.85C6.79 13.49 4.31 14.91 2.77 14.02C1.24 13.13 1.23 10.28 2.75 7.64C4.28 5 6.75 3.58 8.29 4.47Z" fill="#E6007A" fill-opacity="1.000000" fill-rule="evenodd"/>
	<path id="Vector" d="M29.22 16.55C30.75 17.44 30.76 20.29 29.24 22.93C27.71 25.57 25.24 26.99 23.7 26.1C22.17 25.22 22.16 22.36 23.68 19.72C25.2 17.09 27.68 15.67 29.22 16.55Z" fill="#E6007A" fill-opacity="1.000000" fill-rule="evenodd"/>
	<path id="Vector" d="M8.31 19.72C9.83 22.36 9.82 25.22 8.29 26.1C6.75 26.99 4.28 25.57 2.75 22.93C1.23 20.29 1.24 17.44 2.77 16.55C4.31 15.66 6.79 17.08 8.31 19.72Z" fill="#E6007A" fill-opacity="1.000000" fill-rule="evenodd"/>
	<path id="Vector" d="M29.24 7.64C30.76 10.28 30.75 13.14 29.22 14.02C27.68 14.91 25.21 13.49 23.68 10.85C22.16 8.21 22.17 5.36 23.7 4.47C25.24 3.58 27.71 5 29.24 7.64Z" fill="#E6007A" fill-opacity="1.000000" fill-rule="evenodd"/>
</svg>
