<svg width="32.000000" height="32.000000" viewBox="0 0 32 32" fill="none" xmlns="http://www.w3.org/2000/svg" xmlns:xlink="http://www.w3.org/1999/xlink">
	<desc>
			Created with Pixso.
	</desc>
	<defs/>
	<path id="Oval" d="M32 16C32 24.83 24.83 32 16 32C7.16 32 0 24.83 0 16C0 7.16 7.16 0 16 0C24.83 0 32 7.16 32 16Z" fill="#627EEA" fill-opacity="1.000000" fill-rule="evenodd"/>
	<path id="Path" d="M16.49 3.99L16.49 12.86L23.99 16.21L16.49 3.99Z" fill="#FFFFFF" fill-opacity="0.602000" fill-rule="nonzero"/>
	<path id="Path_1_" d="M16.49 3.99L9 16.21L16.49 12.86L16.49 3.99Z" fill="#FFFFFF" fill-opacity="1.000000" fill-rule="nonzero"/>
	<path id="Path_2_" d="M16.49 21.96L16.49 27.99L23.99 17.61L16.49 21.96Z" fill="#FFFFFF" fill-opacity="0.602000" fill-rule="nonzero"/>
	<path id="Path_3_" d="M16.49 27.99L16.49 21.96L9 17.61L16.49 27.99Z" fill="#FFFFFF" fill-opacity="1.000000" fill-rule="nonzero"/>
	<path id="Path_4_" d="M16.49 20.57L23.99 16.21L16.49 12.86L16.49 20.57Z" fill="#FFFFFF" fill-opacity="0.200000" fill-rule="nonzero"/>
	<path id="Path_5_" d="M9 16.21L16.49 20.57L16.49 12.86L9 16.21Z" fill="#FFFFFF" fill-opacity="0.602000" fill-rule="nonzero"/>
</svg>
