<svg width="32.000000" height="32.000000" viewBox="0 0 32 32" fill="none" xmlns="http://www.w3.org/2000/svg" xmlns:xlink="http://www.w3.org/1999/xlink">
	<desc>
			Created with Pixso.
	</desc>
	<defs>
		<clipPath id="clip1_238">
			<rect id="Litecoin Icon 1" rx="0.000000" width="31.612591" height="31.612591" transform="translate(0.193705 0.193705)" fill="white" fill-opacity="0"/>
		</clipPath>
	</defs>
	<rect id="Litecoin Icon 1" rx="0.000000" width="31.612591" height="31.612591" transform="translate(0.193705 0.193705)" fill="#FFFFFF" fill-opacity="0"/>
	<g clip-path="url(#clip1_238)">
		<path id="Vector" d="M30.26 16C30.26 23.88 23.88 30.26 16 30.26C8.11 30.26 1.73 23.88 1.73 16C1.73 8.11 8.11 1.73 16 1.73C23.88 1.73 30.26 8.11 30.26 16Z" fill="#FFFFFF" fill-opacity="1.000000" fill-rule="evenodd"/>
		<path id="Vector" d="M16 0C12.83 0 9.74 0.93 7.11 2.69C4.47 4.45 2.42 6.95 1.21 9.87C0 12.8 -0.31 16.01 0.3 19.12C0.92 22.22 2.44 25.07 4.68 27.31C6.92 29.55 9.77 31.07 12.87 31.69C15.98 32.3 19.19 31.99 22.12 30.78C25.04 29.57 27.54 27.52 29.3 24.88C31.06 22.25 32 19.16 32 16C32 13.9 31.59 11.82 30.8 9.89C30 7.95 28.83 6.19 27.36 4.7C25.88 3.21 24.12 2.03 22.19 1.23C20.26 0.42 18.18 0 16.09 0L16 0ZM16.27 16.54L14.6 22.15L23.51 22.15C23.57 22.15 23.63 22.16 23.68 22.18C23.74 22.2 23.79 22.24 23.83 22.28C23.88 22.32 23.91 22.36 23.94 22.42C23.96 22.47 23.97 22.53 23.98 22.59L23.98 22.74L23.2 25.41C23.17 25.54 23.09 25.65 22.98 25.72C22.88 25.8 22.75 25.84 22.62 25.84L8.98 25.84L11.27 18.05L8.71 18.82L9.29 17.04L11.85 16.27L15.07 5.34C15.1 5.22 15.18 5.11 15.28 5.03C15.39 4.95 15.52 4.91 15.65 4.92L19.09 4.92C19.15 4.91 19.21 4.92 19.27 4.94C19.32 4.96 19.37 5 19.42 5.04C19.46 5.08 19.49 5.12 19.52 5.18C19.54 5.23 19.56 5.29 19.56 5.35L19.56 5.5L16.85 14.72L19.4 13.94L18.86 15.8L16.27 16.54Z" fill="#345D9D" fill-opacity="1.000000" fill-rule="nonzero"/>
	</g>
</svg>
