<svg width="26.000000" height="21.000000" viewBox="0 0 26 21" fill="none" xmlns="http://www.w3.org/2000/svg" xmlns:xlink="http://www.w3.org/1999/xlink">
	<desc>
			Created with Pixso.
	</desc>
	<defs>
		<linearGradient x1="1.589840" y1="21.262077" x2="24.341496" y2="-0.274139" id="paint_linear_1_266_0" gradientUnits="userSpaceOnUse">
			<stop stop-color="#CF41E8"/>
			<stop offset="1.000000" stop-color="#10F2B0"/>
		</linearGradient>
	</defs>
	<path id="Vector" d="M22.25 4.97C22.17 5.05 22.08 5.11 21.98 5.14C21.88 5.19 21.77 5.21 21.66 5.21L0.83 5.21C0.09 5.21 -0.28 4.31 0.23 3.78L3.65 0.25C3.73 0.16 3.82 0.1 3.93 0.06C4.03 0.01 4.14 0 4.25 0L25.16 0C25.91 0 26.27 0.9 25.75 1.43L22.25 4.97ZM22.25 20.75C22.09 20.91 21.88 21 21.66 21L0.83 21C0.09 21 -0.28 20.12 0.23 19.6L3.65 16.15C3.73 16.07 3.83 16.01 3.93 15.97C4.03 15.93 4.14 15.91 4.25 15.91L25.16 15.91C25.91 15.91 26.27 16.79 25.75 17.31L22.25 20.75ZM22.25 8.19C22.09 8.04 21.88 7.95 21.66 7.95L0.83 7.95C0.09 7.95 -0.28 8.83 0.23 9.35L3.65 12.8C3.73 12.88 3.83 12.94 3.93 12.98C4.03 13.02 4.14 13.04 4.25 13.04L25.16 13.04C25.91 13.04 26.27 12.15 25.75 11.63L22.25 8.19Z" fill="url(#paint_linear_1_266_0)" fill-opacity="1.000000" fill-rule="nonzero"/>
</svg>
