<svg width="24.000000" height="24.000000" viewBox="0 0 24 24" fill="none" xmlns="http://www.w3.org/2000/svg" xmlns:xlink="http://www.w3.org/1999/xlink">
	<desc>
			Created with Pixso.
	</desc>
	<defs>
		<clipPath id="clip1_605">
			<rect id="Frame" rx="0.000000" width="23.000000" height="23.000000" transform="translate(0.500000 0.500000)" fill="white" fill-opacity="0"/>
		</clipPath>
	</defs>
	<rect id="Frame" rx="0.000000" width="23.000000" height="23.000000" transform="translate(0.500000 0.500000)" fill="#FFFFFF" fill-opacity="0"/>
	<g clip-path="url(#clip1_605)">
		<path id="Vector" d="M13.87 10.9L14.54 10.61C16.18 9.91 17 9.55 17 9C17 8.44 16.18 8.08 14.54 7.38L13.87 7.09C12.95 6.69 12.49 6.5 12 6.5C11.5 6.5 11.04 6.69 10.12 7.09L9.45 7.38C7.81 8.08 7 8.44 7 9C7 9.55 7.81 9.91 9.45 10.61L10.12 10.9C11.04 11.3 11.5 11.5 12 11.5C12.49 11.5 12.95 11.3 13.87 10.9ZM12 11.5L12 17.5" stroke="#99E39E" stroke-opacity="1.000000" stroke-width="1.500000" stroke-linejoin="round"/>
		<path id="Vector" d="M17 9L17 15C17 15.55 16.18 15.91 14.54 16.61L13.87 16.9C12.95 17.3 12.49 17.5 12 17.5C11.5 17.5 11.04 17.3 10.12 16.9L9.45 16.61C7.81 15.91 7 15.55 7 15L7 9" stroke="#99E39E" stroke-opacity="1.000000" stroke-width="1.500000" stroke-linejoin="round"/>
		<path id="Vector" d="M9.14 2.5C6.48 2.56 4.93 2.81 3.87 3.87C2.81 4.93 2.56 6.48 2.5 9.14M14.85 2.5C17.51 2.56 19.06 2.81 20.12 3.87C21.18 4.93 21.43 6.48 21.5 9.14M14.85 21.5C17.51 21.43 19.06 21.18 20.12 20.12C21.18 19.06 21.43 17.51 21.5 14.85M9.14 21.5C6.48 21.43 4.93 21.18 3.87 20.12C2.81 19.06 2.56 17.51 2.5 14.85" stroke="#99E39E" stroke-opacity="1.000000" stroke-width="1.500000" stroke-linejoin="round" stroke-linecap="round"/>
	</g>
</svg>
