<svg width="24.000000" height="24.000000" viewBox="0 0 24 24" fill="none" xmlns="http://www.w3.org/2000/svg" xmlns:xlink="http://www.w3.org/1999/xlink">
	<desc>
			Created with Pixso.
	</desc>
	<defs>
		<clipPath id="clip1_583">
			<rect id="Frame" rx="0.000000" width="23.000000" height="23.000000" transform="translate(0.500000 0.500000)" fill="white" fill-opacity="0"/>
		</clipPath>
	</defs>
	<rect id="Frame" rx="0.000000" width="23.000000" height="23.000000" transform="translate(0.500000 0.500000)" fill="#FFFFFF" fill-opacity="0"/>
	<g clip-path="url(#clip1_583)">
		<path id="Vector" d="M6.23 7C4.6 7 3.78 7 3.32 7.49C2.86 7.98 2.96 8.75 3.17 10.29C3.22 10.73 3.32 10.99 3.62 11.34C4.59 12.46 6.36 14.45 8.85 16.27C9.08 16.44 9.23 16.71 9.25 17.01C9.34 18 9.42 18.9 9.5 19.7C9.62 21.01 9.68 21.66 10.16 21.91C10.63 22.16 11.23 21.84 12.42 21.21L13.48 20.64C13.92 20.41 14.14 20.29 14.28 20.09C14.42 19.89 14.44 19.66 14.5 19.18C14.57 18.56 14.65 17.85 14.73 17.01C14.75 16.71 14.9 16.44 15.13 16.28C17.62 14.46 19.4 12.46 20.37 11.34C20.67 10.99 20.77 10.73 20.82 10.29C21.03 8.75 21.13 7.98 20.67 7.49C20.21 7 19.39 7 17.76 7" stroke="#99E39E" stroke-opacity="1.000000" stroke-width="1.500000" stroke-linejoin="round" stroke-linecap="round"/>
		<path id="Vector" d="M9.62 9.5L9.62 3.5M11.5 3.5L11.5 2M11.5 11L11.5 9.5M9.62 6.5L13.37 6.5C13.99 6.5 14.5 7 14.5 7.62L14.5 8.37C14.5 8.99 13.99 9.5 13.37 9.5L8.5 9.5M13.37 6.5C13.99 6.5 14.5 5.99 14.5 5.37L14.5 4.62C14.5 4 13.99 3.5 13.37 3.5L8.5 3.5" stroke="#99E39E" stroke-opacity="1.000000" stroke-width="1.500000" stroke-linejoin="round" stroke-linecap="round"/>
	</g>
</svg>
