<svg width="24.000000" height="24.000000" viewBox="0 0 24 24" fill="none" xmlns="http://www.w3.org/2000/svg" xmlns:xlink="http://www.w3.org/1999/xlink">
	<desc>
			Created with Pixso.
	</desc>
	<defs>
		<clipPath id="clip1_591">
			<rect id="Frame" rx="0.000000" width="23.000000" height="23.000000" transform="translate(0.500000 0.500000)" fill="white" fill-opacity="0"/>
		</clipPath>
	</defs>
	<rect id="Frame" rx="0.000000" width="23.000000" height="23.000000" transform="translate(0.500000 0.500000)" fill="#FFFFFF" fill-opacity="0"/>
	<g clip-path="url(#clip1_591)">
		<path id="Vector" d="M13.28 5C14.95 3.33 17.14 2.63 19.46 2.52C20.36 2.47 20.81 2.45 21.18 2.81C21.54 3.18 21.52 3.63 21.47 4.53C21.36 6.85 20.66 9.04 18.99 10.71L17.51 12.19C16.28 13.42 15.93 13.77 16.19 15.09C16.44 16.11 16.69 17.09 15.95 17.82C15.06 18.72 14.24 18.72 13.35 17.82L6.17 10.64C5.27 9.75 5.27 8.93 6.17 8.04C6.9 7.3 7.88 7.55 8.9 7.8C10.22 8.06 10.57 7.71 11.8 6.48L13.28 5Z" stroke="#99E39E" stroke-opacity="1.000000" stroke-width="1.500000" stroke-linejoin="round"/>
		<path id="Vector" d="M16.99 7L17 7" stroke="#99E39E" stroke-opacity="1.000000" stroke-width="2.000000" stroke-linejoin="round" stroke-linecap="round"/>
		<path id="Vector" d="M2.5 21.5L7.5 16.5" stroke="#99E39E" stroke-opacity="1.000000" stroke-width="1.500000" stroke-linecap="round"/>
		<path id="Vector" d="M8.5 21.5L10.5 19.5" stroke="#99E39E" stroke-opacity="1.000000" stroke-width="1.500000" stroke-linecap="round"/>
		<path id="Vector" d="M2.5 15.5L4.5 13.5" stroke="#99E39E" stroke-opacity="1.000000" stroke-width="1.500000" stroke-linecap="round"/>
	</g>
</svg>
