<svg width="22" height="22" viewBox="0 0 22 22" fill="none" xmlns="http://www.w3.org/2000/svg">
<g id="iconfinder_4747498_instagram_social media_icon 3">
<path id="Vector" d="M17.6884 6.19255C17.6884 6.34992 17.6574 6.50576 17.5972 6.65114C17.537 6.79653 17.4486 6.92864 17.3375 7.03992C17.2262 7.1512 17.094 7.23946 16.9486 7.29969C16.8033 7.35991 16.6474 7.39091 16.4901 7.39091C16.3327 7.39091 16.1769 7.35991 16.0314 7.29969C15.8861 7.23946 15.754 7.1512 15.6427 7.03992C15.5314 6.92864 15.4431 6.79653 15.383 6.65114C15.3227 6.50576 15.2917 6.34992 15.2917 6.19255C15.2917 5.87473 15.4179 5.56993 15.6427 5.34519C15.8675 5.12046 16.1722 4.9942 16.4901 4.9942C16.8079 4.9942 17.1127 5.12046 17.3375 5.34519C17.5621 5.56993 17.6884 5.87473 17.6884 6.19255ZM21.4931 11.602V11.6175L21.4246 15.9606C21.4071 17.5268 20.7771 19.0241 19.6696 20.1318C18.5622 21.2395 17.0651 21.8698 15.4988 21.8876L11.1402 21.9549H11.1246L6.78159 21.8863C5.21528 21.8689 3.71804 21.2389 2.61031 20.1315C1.50257 19.024 0.872352 17.5268 0.854526 15.9606L0.787231 11.602V11.5864L0.85582 7.24338C0.873303 5.67707 1.50319 4.17983 2.61069 3.0721C3.71818 1.96436 5.21528 1.33414 6.78159 1.31632L11.1402 1.24902H11.1557L15.4988 1.31761C17.0651 1.3351 18.5624 1.96498 19.67 3.07248C20.7778 4.17997 21.408 5.67707 21.4258 7.24338L21.4931 11.602ZM19.5649 11.602L19.4976 7.27314C19.4854 6.20845 19.0571 5.19078 18.3043 4.43787C17.5514 3.68498 16.5337 3.25666 15.469 3.24456L11.1402 3.17726L6.81135 3.24456C5.74666 3.25666 4.72899 3.68498 3.97608 4.43787C3.22319 5.19078 2.79487 6.20845 2.78277 7.27314L2.71547 11.602L2.78277 15.9308C2.79487 16.9955 3.22319 18.0132 3.97608 18.7661C4.72899 19.519 5.74666 19.9472 6.81135 19.9594L11.1402 20.0267L15.469 19.9594C16.5337 19.9472 17.5514 19.519 18.3043 18.7661C19.0571 18.0132 19.4854 16.9955 19.4976 15.9308L19.5649 11.602ZM16.4564 11.602C16.4564 13.0119 15.8963 14.3641 14.8994 15.3611C13.9024 16.3581 12.5501 16.9182 11.1402 16.9182C9.73022 16.9182 8.37801 16.3581 7.38102 15.3611C6.38404 14.3641 5.82394 13.0119 5.82394 11.602C5.82394 10.192 6.38404 8.8398 7.38102 7.84281C8.37801 6.84583 9.73022 6.28573 11.1402 6.28573C12.5501 6.28573 13.9024 6.84583 14.8994 7.84281C15.8963 8.8398 16.4564 10.192 16.4564 11.602ZM14.5282 11.602C14.5282 10.7034 14.1713 9.84166 13.5359 9.20628C12.9005 8.57091 12.0387 8.21397 11.1402 8.21397C10.2416 8.21397 9.37987 8.57091 8.74449 9.20628C8.10912 9.84166 7.75218 10.7034 7.75218 11.602C7.75218 12.5005 8.10912 13.3622 8.74449 13.9976C9.37987 14.6331 10.2416 14.99 11.1402 14.99C12.0387 14.99 12.9005 14.6331 13.5359 13.9976C14.1713 13.3622 14.5282 12.5005 14.5282 11.602Z" fill="white"/>
</g>
</svg>
