<svg width="119" height="155" viewBox="0 0 119 155" fill="none" xmlns="http://www.w3.org/2000/svg">
<path d="M72.1741 87.8472C70.8158 88.1514 69.4928 88.715 68.2872 89.5024C65.1464 91.5037 63.3191 94.3604 64.2061 95.8826C65.093 97.4047 68.3581 97.0154 71.4989 95.0141C72.7206 94.2545 73.806 93.2837 74.6882 92.1617C75.0976 91.6196 75.1711 90.9442 74.8758 90.4393L73.7236 88.4619C73.4305 87.9554 72.8224 87.7145 72.1741 87.8472Z" fill="#D5D6DB"/>
<path d="M64.2872 60.8541C63.3023 61.0749 62.3428 61.4837 61.4686 62.0547C59.1917 63.5055 57.866 65.5769 58.5086 66.6797C59.1512 67.7825 61.5196 67.5 63.7963 66.0493C64.6821 65.4983 65.4691 64.794 66.1089 63.9803C66.4054 63.5874 66.4585 63.0981 66.2445 62.732L65.4102 61.3002C65.1979 60.933 64.7573 60.758 64.2872 60.8541Z" fill="#D5D6DB"/>
<path d="M51.473 61.9845C51.2538 61.9601 51.02 62.0185 50.8172 62.148L45.469 65.5562C45.0217 65.8404 44.8427 66.3878 45.0696 66.7789C45.1215 66.8686 45.1925 66.9451 45.2787 67.0041L58.4604 76.0891L76.2938 64.7244L51.473 61.9845Z" fill="#029BC5"/>
<path d="M107.85 60.6999L59.3179 91.252L30.6052 102.677L15.962 105.588L14.3511 102.851L95.2462 52.9043C97.657 51.4095 100.343 50.4919 103.031 50.2448C104.209 50.1429 105.372 50.1821 106.493 50.3609C107.487 50.5116 108.43 50.8023 109.294 51.2244C110.257 51.7026 112.092 51.7578 112.686 52.7106C112.688 52.7091 114.09 57.0835 107.85 60.6999Z" fill="#E1E6E9"/>
<path d="M59.9612 87.2094L38.966 120.679C38.7037 121.15 38.8594 121.676 39.3133 121.855C39.5918 121.965 39.9328 121.922 40.2192 121.74L45.5632 118.35C46.591 117.697 47.5011 116.869 48.2373 115.915L88.9537 68.0462L59.9612 87.2094Z" fill="#029BC5"/>
<path d="M6.98165 86.092C6.63143 85.9723 6.21464 86.0344 5.86282 86.2584L1.44532 89.0718C0.843407 89.4549 0.603556 90.1913 0.909418 90.717C0.967694 90.8169 1.04339 90.9049 1.13413 90.9773L13.5109 100.89L26.5239 92.7615L6.98165 86.092Z" fill="#029BC5"/>
<path d="M17.6592 102.677L10.9977 112.006C10.9001 112.14 10.923 112.308 11.049 112.382C11.1398 112.435 11.2638 112.425 11.3646 112.358L15.4929 109.742C15.5249 109.721 15.554 109.696 15.578 109.667L25.3115 97.832L17.6592 102.677Z" fill="#029BC5"/>
<path d="M105.696 50.7631C104.542 50.5777 103.344 50.5381 102.131 50.6447C100.95 52.2958 100.196 54.1505 99.9423 56.0239C99.9238 56.4002 100.227 56.6711 100.62 56.6289C100.742 56.6157 100.864 56.5728 100.973 56.504L108.581 51.6597C107.691 51.2211 106.72 50.9193 105.696 50.7631Z" fill="#029BC5"/>
<path d="M89.1172 59.6712L94.0842 56.5343L98.7108 64.4033L93.7438 67.5403L89.1172 59.6712Z" fill="#D5D6DB"/>
<path d="M85.9918 62.7834C85.3933 63.1626 85.154 63.8914 85.4579 64.4111L85.9502 65.2531C86.274 65.7595 87.0133 65.8486 87.6016 65.4519C88.1614 65.0741 88.3869 64.3874 88.1171 63.8804L87.6248 63.0384C87.3211 62.5191 86.5903 62.4049 85.9918 62.7834Z" fill="#3A556A"/>
<path d="M81.5274 65.5559C80.9289 65.935 80.6896 66.6638 80.9935 67.1836L81.4858 68.0255C81.8097 68.532 82.549 68.6211 83.1372 68.2244C83.6971 67.8466 83.9225 67.1599 83.6527 66.6529L83.1604 65.8109C82.8565 65.2918 82.1257 65.1775 81.5274 65.5559Z" fill="#3A556A"/>
<path d="M77.0616 68.3293C76.4637 68.7089 76.2253 69.4368 76.5289 69.9561L77.0212 70.798C77.3451 71.3045 78.0844 71.3935 78.6726 70.9968C79.2325 70.6191 79.4579 69.9324 79.1881 69.4254L78.6958 68.5834C78.3919 68.0637 77.6603 67.95 77.0616 68.3293Z" fill="#3A556A"/>
<path d="M72.5972 71.1016C71.9993 71.4813 71.7609 72.2092 72.0646 72.7285L72.5569 73.5705C72.8807 74.0769 73.62 74.166 74.2083 73.7693C74.7681 73.3915 74.9935 72.7048 74.7238 72.1978L74.2314 71.3558C73.9273 70.8362 73.1957 70.7225 72.5972 71.1016Z" fill="#3A556A"/>
<path d="M68.1333 73.8743C67.535 74.2541 67.2965 74.9823 67.6003 75.5018L68.0929 76.3442C68.3966 76.8634 69.1278 76.9772 69.7262 76.5982C70.3246 76.2192 70.5635 75.491 70.2598 74.9717L69.7672 74.1294C69.4643 73.6096 68.7333 73.4952 68.1345 73.8735C68.134 73.8738 68.1338 73.874 68.1333 73.8743Z" fill="#3A556A"/>
<path d="M63.6689 76.6468C63.0707 77.0266 62.8321 77.7548 63.1359 78.2743L63.6285 79.1166C63.9322 79.6359 64.6635 79.7496 65.2618 79.3706C65.8602 78.9916 66.0991 78.2635 65.7954 77.7442L65.3028 76.9019C64.9999 76.3821 64.2689 76.2676 63.6702 76.646C63.6697 76.6463 63.6692 76.6466 63.6689 76.6468Z" fill="#3A556A"/>
<path d="M59.2043 79.4193C58.606 79.7991 58.3675 80.5273 58.6713 81.0468L59.1639 81.8891C59.4683 82.4079 60.1999 82.5204 60.7977 82.141C61.3944 81.7621 61.6328 81.0355 61.3305 80.5168L60.8379 79.6745C60.5344 79.1549 59.8031 79.0406 59.2043 79.4193Z" fill="#3A556A"/>
<path d="M54.7397 82.1918C54.1414 82.5716 53.9029 83.2998 54.2067 83.8193L54.6993 84.6616C55.0037 85.1804 55.7353 85.293 56.3331 84.9135C56.9298 84.5347 57.1682 83.808 56.8659 83.2894L56.3733 82.447C56.0698 81.9274 55.3385 81.8131 54.7397 82.1918Z" fill="#3A556A"/>
<path d="M50.2753 84.9642C49.6771 85.344 49.4386 86.0722 49.7424 86.5917L50.235 87.434C50.5394 87.9528 51.271 88.0654 51.8687 87.6859C52.4654 87.307 52.7038 86.5804 52.4016 86.0618L51.909 85.2195C51.6052 84.7 50.8739 84.5857 50.2753 84.9642Z" fill="#3A556A"/>
<path d="M45.8095 87.7374C45.2111 88.1164 44.9722 88.8446 45.2759 89.3639L45.2765 89.365L45.7691 90.2073C46.0736 90.7261 46.8052 90.8387 47.4029 90.4592C47.9996 90.0803 48.238 89.3537 47.9357 88.835L47.4431 87.9927C47.1396 87.473 46.4084 87.3587 45.8095 87.7374Z" fill="#3A556A"/>
<path d="M41.3464 90.5091C40.748 90.8881 40.5091 91.6163 40.8128 92.1355L40.8134 92.1366L41.306 92.9789C41.6104 93.4977 42.3421 93.6103 42.9398 93.2308C43.5365 92.852 43.7749 92.1253 43.4727 91.6067L42.9801 90.7644C42.6763 90.2449 41.945 90.1306 41.3464 90.5091Z" fill="#3A556A"/>
</svg>
