<svg width="24.000000" height="24.000000" viewBox="0 0 24 24" fill="none" xmlns="http://www.w3.org/2000/svg" xmlns:xlink="http://www.w3.org/1999/xlink">
	<desc>
			Created with Pixso.
	</desc>
	<defs>
		<clipPath id="clip1_714">
			<rect id="Frame" rx="0.000000" width="23.000000" height="23.000000" transform="translate(0.500000 0.500000)" fill="white" fill-opacity="0"/>
		</clipPath>
	</defs>
	<rect id="Frame" rx="0.000000" width="23.000000" height="23.000000" transform="translate(0.500000 0.500000)" fill="#FFFFFF" fill-opacity="0"/>
	<g clip-path="url(#clip1_714)">
		<path id="Vector" d="M20.5 15.82C17.99 21.75 9.86 23.48 5.2 18.86C0.62 14.33 2.04 6.12 8.05 3.5" stroke="#99E39E" stroke-opacity="1.000000" stroke-width="1.500000" stroke-linecap="round"/>
		<path id="Vector" d="M21.12 11.65C21.14 11.62 21.18 11.56 21.2 11.53C21.75 10.64 21.47 9.96 20.9 8.6C20.39 7.36 19.64 6.24 18.69 5.3C17.75 4.35 16.63 3.6 15.39 3.09C14.03 2.52 13.35 2.24 12.46 2.79C12.43 2.81 12.37 2.85 12.34 2.87C11.5 3.48 11.5 4.42 11.5 6.31L11.5 8.42C11.5 10.34 11.5 11.3 12.09 11.9C12.69 12.5 13.65 12.5 15.57 12.5L17.68 12.5C19.57 12.5 20.51 12.5 21.12 11.65Z" stroke="#99E39E" stroke-opacity="1.000000" stroke-width="1.500000"/>
	</g>
</svg>
