<svg width="24.000000" height="24.000000" viewBox="0 0 24 24" fill="none" xmlns="http://www.w3.org/2000/svg" xmlns:xlink="http://www.w3.org/1999/xlink">
	<desc>
			Created with Pixso.
	</desc>
	<defs>
		<clipPath id="clip1_721">
			<rect id="Frame" rx="0.000000" width="23.000000" height="23.000000" transform="translate(0.500000 0.500000)" fill="white" fill-opacity="0"/>
		</clipPath>
	</defs>
	<rect id="Frame" rx="0.000000" width="23.000000" height="23.000000" transform="translate(0.500000 0.500000)" fill="#FFFFFF" fill-opacity="0"/>
	<g clip-path="url(#clip1_721)">
		<path id="Vector" d="M10.12 14.5L10.12 8.5M12 8.5L12 7M12 16L12 14.5M10.12 11.5L13.87 11.5C14.49 11.5 15 12 15 12.62L15 13.37C15 13.99 14.49 14.5 13.87 14.5L9 14.5M13.87 11.5C14.49 11.5 15 10.99 15 10.37L15 9.62C15 9 14.49 8.5 13.87 8.5L9 8.5" stroke="#99E39E" stroke-opacity="1.000000" stroke-width="1.500000" stroke-linejoin="round" stroke-linecap="round"/>
		<path id="Vector" d="M21 8.28C21 6.64 21 5.82 20.59 5.28C20.19 4.75 19.27 4.49 17.45 3.97C16.2 3.61 15.1 3.18 14.22 2.79C13.02 2.26 12.42 2 12 2C11.57 2 10.97 2.26 9.77 2.79C8.89 3.18 7.79 3.61 6.54 3.97C4.72 4.49 3.8 4.75 3.4 5.28C3 5.82 3 6.64 3 8.28L3 11.18C3 16.8 8.06 20.18 10.59 21.51C11.2 21.83 11.5 22 12 22C12.49 22 12.79 21.83 13.4 21.51C15.93 20.18 21 16.8 21 11.18L21 8.28Z" stroke="#99E39E" stroke-opacity="1.000000" stroke-width="1.500000"/>
	</g>
</svg>
