<svg width="24.000000" height="24.000000" viewBox="0 0 24 24" fill="none" xmlns="http://www.w3.org/2000/svg" xmlns:xlink="http://www.w3.org/1999/xlink">
	<desc>
			Created with Pixso.
	</desc>
	<defs>
		<clipPath id="clip1_728">
			<rect id="Frame" rx="0.000000" width="23.000000" height="23.000000" transform="translate(0.500000 0.500000)" fill="white" fill-opacity="0"/>
		</clipPath>
	</defs>
	<rect id="Frame" rx="0.000000" width="23.000000" height="23.000000" transform="translate(0.500000 0.500000)" fill="#FFFFFF" fill-opacity="0"/>
	<g clip-path="url(#clip1_728)">
		<path id="Vector" d="M6.02 3.02C7.05 2 8.7 2 12 2C15.29 2 16.94 2 17.97 3.02C19 4.05 19 5.7 19 9L19 15C19 18.29 19 19.94 17.97 20.97C16.94 22 15.29 22 12 22C8.7 22 7.05 22 6.02 20.97C5 19.94 5 18.29 5 15L5 9C5 5.7 5 4.05 6.02 3.02Z" stroke="#99E39E" stroke-opacity="1.000000" stroke-width="1.500000"/>
		<path id="Vector" d="M11 19L13 19" stroke="#99E39E" stroke-opacity="1.000000" stroke-width="1.500000" stroke-linejoin="round" stroke-linecap="round"/>
		<path id="Vector" d="M9 2L9.08 2.53C9.28 3.69 9.37 4.27 9.77 4.62C10.18 4.98 10.77 5 12 5C13.22 5 13.81 4.98 14.22 4.62C14.62 4.27 14.71 3.69 14.91 2.53L15 2" stroke="#99E39E" stroke-opacity="1.000000" stroke-width="1.500000" stroke-linejoin="round"/>
	</g>
</svg>
