<svg width="14.833496" height="9.839111" viewBox="0 0 14.8335 9.83911" fill="none" xmlns="http://www.w3.org/2000/svg" xmlns:xlink="http://www.w3.org/1999/xlink">
	<desc>
			Created with Pixso.
	</desc>
	<defs/>
	<path id="Vector (Border)" d="M0.75 4.16L14.08 4.16C14.5 4.16 14.83 4.49 14.83 4.91C14.83 5.33 14.5 5.66 14.08 5.66L0.75 5.66C0.32 5.66 0 5.33 0 4.91C0 4.49 0.32 4.16 0.75 4.16Z" fill="#000000" fill-opacity="1.000000" fill-rule="evenodd"/>
	<path id="Vector (Border)" d="M10.36 0.14C10.02 -0.11 9.56 -0.04 9.31 0.3C9.06 0.64 9.13 1.1 9.47 1.35C9.64 1.48 9.85 1.64 10.1 1.84C10.62 2.24 11.08 2.62 11.51 2.99C12.09 3.49 12.54 3.93 12.87 4.3C13.04 4.5 13.17 4.67 13.26 4.81C13.28 4.85 13.3 4.88 13.31 4.91C13.3 4.95 13.28 4.98 13.26 5.02C13.17 5.16 13.04 5.33 12.87 5.53C12.54 5.9 12.09 6.34 11.5 6.84C11.08 7.21 10.61 7.59 10.1 7.99C9.85 8.19 9.63 8.35 9.47 8.48C9.13 8.73 9.06 9.19 9.31 9.53C9.56 9.86 10.02 9.93 10.36 9.69C10.54 9.55 10.76 9.38 11.02 9.18C11.56 8.76 12.04 8.36 12.49 7.98C13.12 7.43 13.62 6.94 13.99 6.53C14.23 6.26 14.41 6.01 14.54 5.8C14.73 5.48 14.83 5.19 14.83 4.91C14.83 4.64 14.73 4.35 14.54 4.03C14.41 3.82 14.23 3.57 13.99 3.31C13.62 2.89 13.12 2.4 12.49 1.86C12.05 1.47 11.56 1.07 11.03 0.66C10.76 0.45 10.54 0.28 10.36 0.14Z" fill="#000000" fill-opacity="1.000000" fill-rule="evenodd"/>
</svg>
