<svg width="12.084106" height="16.252197" viewBox="0 0 12.0841 16.2522" fill="none" xmlns="http://www.w3.org/2000/svg" xmlns:xlink="http://www.w3.org/1999/xlink">
	<desc>
			Created with Pixso.
	</desc>
	<defs/>
	<path id="Vector" d="M2.84 8.68C1.61 8.68 0.99 8.68 0.73 8.27C0.46 7.87 0.71 7.3 1.22 6.16L2.73 2.75C3.18 1.71 3.41 1.2 3.85 0.91C4.3 0.62 4.86 0.62 5.98 0.62L7.72 0.62C9.09 0.62 9.77 0.62 10.03 1.07C10.29 1.51 9.95 2.11 9.27 3.3L8.38 4.87C8.04 5.46 7.87 5.76 7.87 6C7.88 6.32 8.05 6.61 8.32 6.77C8.52 6.89 8.86 6.89 9.54 6.89C10.4 6.89 10.83 6.89 11.05 7.04C11.34 7.23 11.5 7.58 11.44 7.92C11.4 8.19 11.11 8.51 10.54 9.15L5.92 14.25C5.02 15.25 4.56 15.75 4.26 15.59C3.96 15.43 4.1 14.77 4.39 13.45L4.97 10.86C5.19 9.85 5.3 9.35 5.03 9.02C4.77 8.68 4.25 8.68 3.23 8.68L2.84 8.68Z" stroke="#99E39E" stroke-opacity="1.000000" stroke-width="1.250000" stroke-linejoin="round"/>
</svg>
