<svg width="517.394165" height="517.391113" viewBox="0 0 517.394 517.391" fill="none" xmlns="http://www.w3.org/2000/svg" xmlns:xlink="http://www.w3.org/1999/xlink">
	<desc>
			Created with Pixso.
	</desc>
	<defs/>
	<path id="Vector" d="M156.46 71.08C126.71 91.81 101.92 118.42 83.79 149.1L183.12 202.33C193.04 185.54 206.61 170.97 222.9 159.63C239.18 148.28 257.8 140.43 277.45 136.62C297.11 132.8 317.34 133.11 336.75 137.53C356.17 141.95 374.3 150.37 389.89 162.21L461.53 75.79C433.04 54.17 399.92 38.79 364.46 30.72C329 22.65 292.04 22.07 256.13 29.04C220.22 36.01 186.22 50.35 156.46 71.08ZM429.1 440.22C459.62 420.55 485.4 394.81 504.68 364.78L407.5 308.06C396.95 324.49 382.84 338.58 366.13 349.35C349.43 360.12 330.54 367.31 310.76 370.43C290.98 373.55 270.78 372.53 251.56 367.42C232.34 362.32 214.55 353.27 199.43 340.88L124.56 424.75C152.19 447.38 184.68 463.92 219.79 473.24C254.91 482.56 291.8 484.43 327.94 478.73C364.07 473.03 398.59 459.89 429.1 440.22Z" fill="#FFFFFF" fill-opacity="1.000000" fill-rule="evenodd"/>
	<path id="Polygon 1" d="M239.77 266.17L118.56 394.39L86.63 178.53L239.77 266.17Z" fill="#FFFFFF" fill-opacity="1.000000" fill-rule="evenodd"/>
	<path id="Polygon 2" d="M171.18 276.31L49.96 404.53L18.04 188.67L171.18 276.31Z" fill="#FFFFFF" fill-opacity="1.000000" fill-rule="evenodd"/>
</svg>
