<svg width="28.000488" height="28.000000" viewBox="0 0 28.0005 28" fill="none" xmlns="http://www.w3.org/2000/svg" xmlns:xlink="http://www.w3.org/1999/xlink">
	<desc>
			Created with Pixso.
	</desc>
	<defs/>
	<path id="Vector" d="M9.47 1.67C7.47 2.66 5.73 4.06 4.35 5.76L9.91 9.89C10.66 8.96 11.62 8.19 12.71 7.65C13.8 7.11 15 6.8 16.23 6.74C17.46 6.69 18.69 6.89 19.83 7.33C20.97 7.77 22 8.45 22.84 9.31L27.97 4.7C26.43 3.13 24.56 1.9 22.47 1.09C20.39 0.28 18.15 -0.09 15.9 0.01C13.66 0.11 11.46 0.68 9.47 1.67ZM22.72 26.56C24.75 25.64 26.55 24.31 28 22.66L22.6 18.33C21.81 19.24 20.82 19.97 19.71 20.47C18.6 20.98 17.39 21.24 16.16 21.26C14.93 21.27 13.71 21.02 12.58 20.54C11.46 20.06 10.46 19.35 9.65 18.46L4.35 22.88C5.82 24.51 7.65 25.81 9.7 26.69C11.75 27.57 13.98 28.02 16.23 27.99C18.47 27.97 20.69 27.48 22.72 26.56Z" fill="#FFFFFF" fill-opacity="1.000000" fill-rule="evenodd"/>
	<path id="Polygon 1" d="M12.78 14.28L4.26 20.98L4.26 7.57L12.78 14.28Z" fill="#99E39E" fill-opacity="1.000000" fill-rule="evenodd"/>
	<path id="Polygon 2" d="M8.52 14.28L0 20.98L0 7.57L8.52 14.28Z" fill="#99E39E" fill-opacity="1.000000" fill-rule="evenodd"/>
</svg>
