<svg width="17.916748" height="16.767578" viewBox="0 0 17.9167 16.7676" fill="none" xmlns="http://www.w3.org/2000/svg" xmlns:xlink="http://www.w3.org/1999/xlink">
	<desc>
			Created with Pixso.
	</desc>
	<defs/>
	<path id="Vector" d="M8.95 11.3C7.34 11.3 6.04 9.99 6.04 8.38C6.04 6.77 7.34 5.46 8.95 5.46C10.56 5.46 11.87 6.77 11.87 8.38C11.87 9.99 10.56 11.3 8.95 11.3Z" stroke="#99E39E" stroke-opacity="1.000000" stroke-width="1.250000"/>
	<path id="Vector" d="M17.2 9.84C17.29 9.73 17.29 9.55 17.29 9.18L17.29 7.57C17.29 7.21 17.29 7.03 17.2 6.92C17.11 6.81 16.9 6.75 16.46 6.63C14.84 6.19 13.82 4.49 14.24 2.88C14.35 2.44 14.41 2.21 14.36 2.08C14.3 1.95 14.14 1.86 13.83 1.68L12.39 0.87C12.08 0.69 11.93 0.6 11.79 0.62C11.65 0.64 11.49 0.8 11.18 1.11C9.96 2.32 7.95 2.32 6.73 1.11C6.42 0.8 6.26 0.64 6.12 0.62C5.98 0.6 5.83 0.69 5.52 0.87L4.08 1.68C3.76 1.86 3.61 1.95 3.55 2.08C3.5 2.21 3.55 2.44 3.67 2.88C4.09 4.49 3.07 6.19 1.44 6.63C1.01 6.75 0.79 6.81 0.71 6.92C0.62 7.03 0.62 7.21 0.62 7.57L0.62 9.18C0.62 9.55 0.62 9.73 0.71 9.84C0.79 9.95 1.01 10.01 1.44 10.13C3.07 10.56 4.09 12.26 3.67 13.88C3.55 14.32 3.49 14.54 3.55 14.67C3.6 14.8 3.76 14.89 4.08 15.07L5.52 15.89C5.83 16.07 5.98 16.15 6.12 16.14C6.26 16.12 6.42 15.96 6.73 15.65C7.95 14.43 9.96 14.43 11.18 15.65C11.49 15.96 11.65 16.12 11.79 16.14C11.93 16.15 12.08 16.07 12.39 15.89L13.83 15.07C14.15 14.89 14.3 14.8 14.36 14.67C14.41 14.54 14.36 14.32 14.24 13.88C13.82 12.26 14.84 10.56 16.46 10.13C16.9 10.01 17.11 9.95 17.2 9.84Z" stroke="#99E39E" stroke-opacity="1.000000" stroke-width="1.250000"/>
</svg>
