<svg width="20.000000" height="20.000000" viewBox="0 0 20 20" fill="none" xmlns="http://www.w3.org/2000/svg" xmlns:xlink="http://www.w3.org/1999/xlink">
	<desc>
			Created with Pixso.
	</desc>
	<defs>
		<clipPath id="clip1_1041">
			<rect id="Frame" rx="0.000000" width="19.166666" height="19.166666" transform="translate(0.416667 0.416667)" fill="white" fill-opacity="0"/>
		</clipPath>
	</defs>
	<rect id="Frame" rx="0.000000" width="19.166666" height="19.166666" transform="translate(0.416667 0.416667)" fill="#FFFFFF" fill-opacity="0"/>
	<g clip-path="url(#clip1_1041)">
		<path id="Vector" d="M3.24 3.24C4.4 2.08 6.26 2.08 10 2.08C13.73 2.08 15.59 2.08 16.75 3.24C17.91 4.4 17.91 6.26 17.91 10C17.91 13.73 17.91 15.59 16.75 16.75C15.59 17.91 13.73 17.91 10 17.91C6.26 17.91 4.4 17.91 3.24 16.75C2.08 15.59 2.08 13.73 2.08 10C2.08 6.26 2.08 4.4 3.24 3.24Z" stroke="#FFFFFF" stroke-opacity="1.000000" stroke-width="1.250000" stroke-linejoin="round"/>
		<path id="Vector" d="M10 13.75C7.92 13.75 6.25 12.07 6.25 10C6.25 7.92 7.92 6.25 10 6.25C12.07 6.25 13.75 7.92 13.75 10C13.75 12.07 12.07 13.75 10 13.75Z" stroke="#FFFFFF" stroke-opacity="1.000000" stroke-width="1.250000"/>
		<path id="Vector" d="M14.58 5.41L14.58 5.41" stroke="#FFFFFF" stroke-opacity="1.000000" stroke-width="1.666667" stroke-linejoin="round" stroke-linecap="round"/>
	</g>
</svg>
