<svg width="130.287231" height="31.219421" viewBox="0 0 130.287 31.2194" fill="none" xmlns="http://www.w3.org/2000/svg" xmlns:xlink="http://www.w3.org/1999/xlink">
	<desc>
			Created with Pixso.
	</desc>
	<defs/>
	<path id="Vector" d="M38.21 21.87L47.54 21.87L47.54 19.06L41.52 19.06L41.52 8.48L38.21 8.48L38.21 21.87Z" fill="#FFFFFF" fill-opacity="1.000000" fill-rule="nonzero"/>
	<path id="Vector" d="M53.06 20C51.73 20 51.04 18.84 51.04 17.1C51.04 15.35 51.73 14.17 53.06 14.17C54.39 14.17 55.1 15.35 55.1 17.1C55.1 18.84 54.39 20 53.06 20ZM53.08 22.17C56.17 22.17 58.2 19.98 58.2 17.1C58.2 14.21 56.17 12.02 53.08 12.02C50.01 12.02 47.95 14.21 47.95 17.1C47.95 19.98 50.01 22.17 53.08 22.17Z" fill="#FFFFFF" fill-opacity="1.000000" fill-rule="nonzero"/>
	<path id="Vector" d="M63.55 25.19C64.97 25.19 66.22 24.87 67.07 24.12C67.83 23.43 68.34 22.38 68.34 20.93L68.34 12.28L65.42 12.28L65.42 13.31L65.38 13.31C64.82 12.51 63.96 12 62.68 12C60.3 12 58.66 13.99 58.66 16.8C58.66 19.74 60.66 21.35 62.81 21.35C63.98 21.35 64.71 20.88 65.27 20.24L65.34 20.24L65.34 21.2C65.34 22.36 64.8 23.03 63.51 23.03C62.5 23.03 61.99 22.6 61.82 22.1L58.86 22.1C59.16 24.1 60.9 25.19 63.55 25.19ZM63.53 19.08C62.38 19.08 61.63 18.14 61.63 16.7C61.63 15.24 62.38 14.3 63.53 14.3C64.8 14.3 65.47 15.39 65.47 16.68C65.47 18.03 64.86 19.08 63.53 19.08Z" fill="#FFFFFF" fill-opacity="1.000000" fill-rule="nonzero"/>
	<path id="Vector" d="M74.35 20C73.02 20 72.33 18.84 72.33 17.1C72.33 15.35 73.02 14.17 74.35 14.17C75.68 14.17 76.39 15.35 76.39 17.1C76.39 18.84 75.68 20 74.35 20ZM74.37 22.17C77.46 22.17 79.48 19.98 79.48 17.1C79.48 14.21 77.46 12.02 74.37 12.02C71.3 12.02 69.24 14.21 69.24 17.1C69.24 19.98 71.3 22.17 74.37 22.17Z" fill="#FFFFFF" fill-opacity="1.000000" fill-rule="nonzero"/>
	<path id="Vector" d="M80.37 21.87L83.43 21.87L83.43 12.28L80.37 12.28L80.37 21.87ZM80.37 10.95L83.43 10.95L83.43 8.48L80.37 8.48L80.37 10.95Z" fill="#FFFFFF" fill-opacity="1.000000" fill-rule="nonzero"/>
	<path id="Vector" d="M84.75 25.04L87.8 25.04L87.8 20.88L87.84 20.88C88.44 21.68 89.32 22.17 90.56 22.17C93.07 22.17 94.74 20.19 94.74 17.08C94.74 14.19 93.18 12 90.63 12C89.32 12 88.38 12.58 87.73 13.44L87.67 13.44L87.67 12.28L84.75 12.28L84.75 25.04ZM89.77 19.81C88.46 19.81 87.71 18.74 87.71 17.19C87.71 15.63 88.38 14.45 89.71 14.45C91.03 14.45 91.64 15.54 91.64 17.19C91.64 18.82 90.93 19.81 89.77 19.81Z" fill="#FFFFFF" fill-opacity="1.000000" fill-rule="nonzero"/>
	<path id="Vector" d="M99.71 22.17C102.22 22.17 104.07 21.08 104.07 18.99C104.07 16.53 102.09 16.1 100.4 15.82C99.18 15.6 98.09 15.5 98.09 14.83C98.09 14.23 98.68 13.95 99.42 13.95C100.27 13.95 100.85 14.21 100.96 15.07L103.77 15.07C103.62 13.18 102.16 12 99.44 12C97.18 12 95.3 13.05 95.3 15.07C95.3 17.32 97.08 17.77 98.75 18.05C100.02 18.28 101.19 18.37 101.19 19.23C101.19 19.85 100.61 20.19 99.69 20.19C98.68 20.19 98.04 19.72 97.93 18.76L95.04 18.76C95.14 20.88 96.9 22.17 99.71 22.17Z" fill="#FFFFFF" fill-opacity="1.000000" fill-rule="nonzero"/>
	<path id="Vector" d="M108.22 22.15C109.55 22.15 110.39 21.63 111.08 20.69L111.14 20.69L111.14 21.87L114.06 21.87L114.06 12.28L111.01 12.28L111.01 17.64C111.01 18.78 110.37 19.57 109.32 19.57C108.35 19.57 107.88 18.99 107.88 17.94L107.88 12.28L104.85 12.28L104.85 18.57C104.85 20.71 106.01 22.15 108.22 22.15Z" fill="#FFFFFF" fill-opacity="1.000000" fill-rule="nonzero"/>
	<path id="Vector" d="M115.39 21.87L118.44 21.87L118.44 16.5C118.44 15.35 119.01 14.55 119.96 14.55C120.88 14.55 121.31 15.15 121.31 16.18L121.31 21.87L124.36 21.87L124.36 16.5C124.36 15.35 124.91 14.55 125.88 14.55C126.8 14.55 127.23 15.15 127.23 16.18L127.23 21.87L130.28 21.87L130.28 15.63C130.28 13.48 129.2 12 127.02 12C125.79 12 124.76 12.52 124.01 13.69L123.97 13.69C123.48 12.66 122.53 12 121.27 12C119.89 12 118.97 12.66 118.37 13.65L118.31 13.65L118.31 12.28L115.39 12.28L115.39 21.87Z" fill="#FFFFFF" fill-opacity="1.000000" fill-rule="nonzero"/>
	<path id="Vector" d="M19.58 0.82L16.51 0L13.92 9.65L11.59 0.93L8.52 1.76L11.04 11.17L4.76 4.89L2.51 7.14L9.4 14.03L0.82 11.73L0 14.8L9.38 17.31C9.27 16.85 9.21 16.37 9.21 15.87C9.21 12.36 12.06 9.51 15.57 9.51C19.08 9.51 21.92 12.36 21.92 15.87C21.92 16.36 21.87 16.84 21.76 17.3L30.29 19.59L31.11 16.52L21.69 13.99L30.28 11.69L29.45 8.62L20.04 11.15L26.32 4.86L24.07 2.61L17.28 9.41L19.58 0.82Z" fill="#F97316" fill-opacity="1.000000" fill-rule="nonzero"/>
	<path id="Vector" d="M21.75 17.34C21.49 18.45 20.93 19.45 20.17 20.25L26.35 26.43L28.59 24.18L21.75 17.34Z" fill="#F97316" fill-opacity="1.000000" fill-rule="nonzero"/>
	<path id="Vector" d="M20.11 20.32C19.34 21.1 18.36 21.69 17.27 22L19.52 30.38L22.59 29.56L20.11 20.32Z" fill="#F97316" fill-opacity="1.000000" fill-rule="nonzero"/>
	<path id="Vector" d="M17.15 22.03C16.65 22.16 16.12 22.23 15.57 22.23C14.98 22.23 14.41 22.15 13.87 22L11.62 30.39L14.69 31.21L17.15 22.03Z" fill="#F97316" fill-opacity="1.000000" fill-rule="nonzero"/>
	<path id="Vector" d="M13.76 21.97C12.69 21.65 11.73 21.05 10.97 20.26L4.78 26.45L7.03 28.7L13.76 21.97Z" fill="#F97316" fill-opacity="1.000000" fill-rule="nonzero"/>
	<path id="Vector" d="M10.92 20.21C10.18 19.41 9.64 18.43 9.38 17.33L0.83 19.62L1.65 22.69L10.92 20.21Z" fill="#F97316" fill-opacity="1.000000" fill-rule="nonzero"/>
</svg>
