<svg width="117.090942" height="32.000000" viewBox="0 0 117.091 32" fill="none" xmlns="http://www.w3.org/2000/svg" xmlns:xlink="http://www.w3.org/1999/xlink">
	<desc>
			Created with Pixso.
	</desc>
	<defs>
		<clipPath id="clip1_182">
			<rect id="logo-28" rx="0.000000" width="116.363640" height="31.272728" transform="translate(0.363636 0.363636)" fill="white" fill-opacity="0"/>
		</clipPath>
	</defs>
	<rect id="logo-28" rx="0.000000" width="116.363640" height="31.272728" transform="translate(0.363636 0.363636)" fill="#FFFFFF" fill-opacity="0"/>
	<g clip-path="url(#clip1_182)">
		<path id="Vector" d="M39.18 21.63L41.73 21.63L41.73 9.59L39.18 9.59L39.18 21.63Z" fill="#FFFFFF" fill-opacity="1.000000" fill-rule="nonzero"/>
		<path id="Vector" d="M46.98 21.9C49.66 21.9 51.42 20.18 51.42 17.13C51.42 14.19 49.71 12.35 46.98 12.35C44.31 12.35 42.57 14.07 42.57 17.13C42.57 20.09 44.26 21.9 46.98 21.9ZM46.98 19.82C45.83 19.82 45.19 18.87 45.19 17.13C45.19 15.38 45.81 14.42 46.98 14.42C48.16 14.42 48.79 15.39 48.79 17.13C48.79 18.89 48.17 19.82 46.98 19.82Z" fill="#FFFFFF" fill-opacity="1.000000" fill-rule="nonzero"/>
		<path id="Vector" d="M55.58 21.65C56.55 21.65 57.35 21.25 57.92 20.46L57.92 21.97C57.92 23.22 57.3 23.64 56.38 23.64C55.5 23.64 54.81 23.2 54.71 22.4L52.15 22.4C52.47 24.59 54.13 25.6 56.42 25.6C58.78 25.6 60.48 24.34 60.48 21.93L60.48 12.63L57.92 12.63L57.92 13.47C57.37 12.73 56.58 12.35 55.58 12.35C53.34 12.35 51.88 14.02 51.88 17.01C51.88 19.88 53.31 21.65 55.58 21.65ZM56.2 19.57C55.1 19.57 54.51 18.65 54.51 17.01C54.51 15.33 55.1 14.42 56.2 14.42C57.32 14.42 57.92 15.34 57.92 17C57.92 18.67 57.34 19.57 56.2 19.57Z" fill="#FFFFFF" fill-opacity="1.000000" fill-rule="nonzero"/>
		<path id="Vector" d="M65.75 21.9C68.42 21.9 70.18 20.18 70.18 17.13C70.18 14.19 68.47 12.35 65.75 12.35C63.07 12.35 61.33 14.07 61.33 17.13C61.33 20.09 63.02 21.9 65.75 21.9ZM65.75 19.82C64.59 19.82 63.96 18.87 63.96 17.13C63.96 15.38 64.58 14.42 65.75 14.42C66.92 14.42 67.55 15.39 67.55 17.13C67.55 18.89 66.93 19.82 65.75 19.82Z" fill="#FFFFFF" fill-opacity="1.000000" fill-rule="nonzero"/>
		<path id="Vector" d="M71.03 11.73L73.59 11.73L73.59 9.59L71.03 9.59L71.03 11.73ZM71.03 21.63L73.59 21.63L73.59 12.63L71.03 12.63L71.03 21.63Z" fill="#FFFFFF" fill-opacity="1.000000" fill-rule="nonzero"/>
		<path id="Vector" d="M77.37 25.33L77.37 20.73C77.9 21.5 78.67 21.9 79.63 21.9C81.92 21.9 83.41 20.18 83.41 17.12C83.41 14.17 81.95 12.35 79.63 12.35C78.69 12.35 77.92 12.78 77.37 13.57L77.37 12.63L74.81 12.63L74.81 25.33L77.37 25.33ZM79.09 14.42C80.18 14.42 80.78 15.38 80.78 17.12C80.78 18.87 80.19 19.82 79.09 19.82C77.97 19.82 77.37 18.85 77.37 17.12C77.37 15.38 77.95 14.42 79.09 14.42Z" fill="#FFFFFF" fill-opacity="1.000000" fill-rule="nonzero"/>
		<path id="Vector" d="M86.48 15.12C86.48 14.64 86.91 14.3 87.58 14.3C88.49 14.3 89.02 14.69 89.17 15.61L91.72 15.61C91.46 13.33 89.83 12.35 87.67 12.35C85.26 12.35 84.04 13.75 84.04 15.26C84.04 18.87 89.49 17.32 89.49 19.06C89.49 19.61 89.04 19.96 88.14 19.96C87.18 19.96 86.5 19.51 86.38 18.67L83.82 18.67C84.15 20.9 85.79 21.9 88.07 21.9C90.41 21.9 92.05 20.68 92.05 18.9C92.05 15.34 86.48 16.9 86.48 15.12Z" fill="#FFFFFF" fill-opacity="1.000000" fill-rule="nonzero"/>
		<path id="Vector" d="M98.36 17.8C98.36 18.95 97.72 19.82 96.73 19.82C95.83 19.82 95.39 19.26 95.39 18.1L95.39 12.63L92.84 12.63L92.84 18.62C92.84 20.86 94.09 21.9 95.8 21.9C96.88 21.9 97.77 21.43 98.36 20.43L98.36 21.63L100.92 21.63L100.92 12.63L98.36 12.63L98.36 17.8Z" fill="#FFFFFF" fill-opacity="1.000000" fill-rule="nonzero"/>
		<path id="Vector" d="M102.15 21.63L104.71 21.63L104.71 16.46C104.71 15.31 105.3 14.42 106.18 14.42C107 14.42 107.4 15.01 107.4 16.14L107.4 21.63L109.95 21.63L109.95 16.46C109.95 15.31 110.55 14.42 111.44 14.42C112.26 14.42 112.64 15.01 112.64 16.14L112.64 21.63L115.2 21.63L115.2 15.63C115.2 13.4 113.96 12.35 112.29 12.35C111.17 12.35 110.21 12.82 109.6 13.84C109.14 12.83 108.24 12.35 107.17 12.35C106.13 12.35 105.28 12.8 104.71 13.77L104.71 12.63L102.15 12.63L102.15 21.63Z" fill="#FFFFFF" fill-opacity="1.000000" fill-rule="nonzero"/>
		<path id="Vector" d="M29.47 25.31C32.24 22.83 33.94 19.49 33.94 15.81C33.94 8.18 26.62 2 17.58 2C8.54 2 1.21 8.18 1.21 15.81C1.21 23.44 8.54 29.63 17.58 29.63C20.14 29.63 22.57 29.13 24.73 28.25C27.27 29.81 30.38 30.94 33.81 30.7C31.99 30.24 30.43 28.37 29.47 25.31Z" fill="#99E39E" fill-opacity="0.400000" fill-rule="nonzero"/>
		<path id="Vector" d="M29.58 15.81C29.58 21.44 24.21 25.99 17.58 25.99C10.95 25.99 5.58 21.44 5.58 15.81C5.58 10.19 10.95 5.63 17.58 5.63C24.21 5.63 29.58 10.19 29.58 15.81Z" fill="#99E39E" fill-opacity="0.600000" fill-rule="nonzero"/>
		<path id="Vector" d="M25.21 15.81C25.21 19.43 21.8 22.36 17.58 22.36C13.36 22.36 9.94 19.43 9.94 15.81C9.94 12.2 13.36 9.27 17.58 9.27C21.8 9.27 25.21 12.2 25.21 15.81Z" fill="#99E39E" fill-opacity="1.000000" fill-rule="evenodd"/>
	</g>
</svg>
