<svg width="129.950928" height="31.219482" viewBox="0 0 129.951 31.2195" fill="none" xmlns="http://www.w3.org/2000/svg" xmlns:xlink="http://www.w3.org/1999/xlink">
	<desc>
			Created with Pixso.
	</desc>
	<defs/>
	<path id="Vector" d="M37.87 22.24L47.2 22.24L47.2 19.43L41.19 19.43L41.19 8.85L37.87 8.85L37.87 22.24Z" fill="#FFFFFF" fill-opacity="1.000000" fill-rule="nonzero"/>
	<path id="Vector" d="M52.73 20.37C51.4 20.37 50.7 19.2 50.7 17.46C50.7 15.72 51.4 14.54 52.73 14.54C54.06 14.54 54.77 15.72 54.77 17.46C54.77 19.2 54.06 20.37 52.73 20.37ZM52.75 22.54C55.84 22.54 57.86 20.35 57.86 17.46C57.86 14.58 55.84 12.39 52.75 12.39C49.67 12.39 47.61 14.58 47.61 17.46C47.61 20.35 49.67 22.54 52.75 22.54Z" fill="#FFFFFF" fill-opacity="1.000000" fill-rule="nonzero"/>
	<path id="Vector" d="M63.21 25.55C64.63 25.55 65.89 25.24 66.73 24.49C67.5 23.79 68 22.74 68 21.3L68 12.65L65.08 12.65L65.08 13.68L65.04 13.68C64.48 12.87 63.62 12.37 62.35 12.37C59.97 12.37 58.32 14.35 58.32 17.16C58.32 20.1 60.32 21.71 62.48 21.71C63.64 21.71 64.37 21.25 64.93 20.61L65.01 20.61L65.01 21.56C65.01 22.73 64.46 23.4 63.17 23.4C62.16 23.4 61.65 22.97 61.49 22.46L58.53 22.46C58.83 24.47 60.57 25.55 63.21 25.55ZM63.19 19.45C62.05 19.45 61.3 18.51 61.3 17.07C61.3 15.61 62.05 14.67 63.19 14.67C64.46 14.67 65.14 15.76 65.14 17.05C65.14 18.4 64.52 19.45 63.19 19.45Z" fill="#FFFFFF" fill-opacity="1.000000" fill-rule="nonzero"/>
	<path id="Vector" d="M74.01 20.37C72.68 20.37 71.99 19.2 71.99 17.46C71.99 15.72 72.68 14.54 74.01 14.54C75.34 14.54 76.05 15.72 76.05 17.46C76.05 19.2 75.34 20.37 74.01 20.37ZM74.03 22.54C77.12 22.54 79.15 20.35 79.15 17.46C79.15 14.58 77.12 12.39 74.03 12.39C70.96 12.39 68.9 14.58 68.9 17.46C68.9 20.35 70.96 22.54 74.03 22.54Z" fill="#FFFFFF" fill-opacity="1.000000" fill-rule="nonzero"/>
	<path id="Vector" d="M80.04 22.24L83.09 22.24L83.09 12.65L80.04 12.65L80.04 22.24ZM80.04 11.32L83.09 11.32L83.09 8.85L80.04 8.85L80.04 11.32Z" fill="#FFFFFF" fill-opacity="1.000000" fill-rule="nonzero"/>
	<path id="Vector" d="M84.41 25.4L87.47 25.4L87.47 21.25L87.51 21.25C88.1 22.05 88.99 22.54 90.22 22.54C92.73 22.54 94.4 20.55 94.4 17.44C94.4 14.56 92.84 12.37 90.3 12.37C88.99 12.37 88.05 12.95 87.39 13.81L87.34 13.81L87.34 12.65L84.41 12.65L84.41 25.4ZM89.43 20.18C88.12 20.18 87.37 19.11 87.37 17.56C87.37 16 88.05 14.82 89.38 14.82C90.69 14.82 91.31 15.91 91.31 17.56C91.31 19.19 90.6 20.18 89.43 20.18Z" fill="#FFFFFF" fill-opacity="1.000000" fill-rule="nonzero"/>
	<path id="Vector" d="M99.37 22.54C101.88 22.54 103.74 21.45 103.74 19.35C103.74 16.9 101.75 16.47 100.06 16.19C98.85 15.96 97.76 15.87 97.76 15.2C97.76 14.6 98.34 14.32 99.09 14.32C99.93 14.32 100.51 14.58 100.63 15.44L103.44 15.44C103.29 13.55 101.82 12.37 99.11 12.37C96.84 12.37 94.97 13.42 94.97 15.44C94.97 17.69 96.75 18.14 98.41 18.42C99.69 18.64 100.85 18.74 100.85 19.6C100.85 20.22 100.27 20.55 99.35 20.55C98.34 20.55 97.7 20.08 97.59 19.13L94.71 19.13C94.8 21.25 96.56 22.54 99.37 22.54Z" fill="#FFFFFF" fill-opacity="1.000000" fill-rule="nonzero"/>
	<path id="Vector" d="M107.88 22.52C109.21 22.52 110.05 22 110.75 21.06L110.8 21.06L110.8 22.24L113.73 22.24L113.73 12.65L110.67 12.65L110.67 18.01C110.67 19.15 110.04 19.93 108.99 19.93C108.01 19.93 107.54 19.35 107.54 18.31L107.54 12.65L104.51 12.65L104.51 18.94C104.51 21.08 105.67 22.52 107.88 22.52Z" fill="#FFFFFF" fill-opacity="1.000000" fill-rule="nonzero"/>
	<path id="Vector" d="M115.05 22.24L118.11 22.24L118.11 16.86C118.11 15.72 118.67 14.91 119.63 14.91C120.54 14.91 120.97 15.51 120.97 16.54L120.97 22.24L124.03 22.24L124.03 16.86C124.03 15.72 124.57 14.91 125.54 14.91C126.46 14.91 126.89 15.51 126.89 16.54L126.89 22.24L129.95 22.24L129.95 16C129.95 13.85 128.86 12.37 126.69 12.37C125.45 12.37 124.42 12.89 123.67 14.05L123.63 14.05C123.15 13.02 122.19 12.37 120.94 12.37C119.55 12.37 118.63 13.02 118.03 14.02L117.98 14.02L117.98 12.65L115.05 12.65L115.05 22.24Z" fill="#FFFFFF" fill-opacity="1.000000" fill-rule="nonzero"/>
	<path id="Vector" d="M6.67 2.8C5.55 3.58 4.54 4.51 3.67 5.55C7.25 5.21 11.8 5.76 17.08 8.4C22.73 11.22 27.27 11.31 30.43 10.7C30.14 9.84 29.78 9 29.35 8.21C25.73 8.59 21.09 8.08 15.69 5.38C12.25 3.66 9.23 2.96 6.67 2.8ZM27.24 5.2C24.38 2 20.23 0 15.6 0C14.25 0 12.93 0.17 11.67 0.49C13.37 0.96 15.18 1.64 17.08 2.59C21.04 4.57 24.46 5.2 27.24 5.2ZM31.11 13.75C27.29 14.51 22.01 14.35 15.69 11.19C9.77 8.23 5.07 8.27 1.89 8.98C1.73 9.01 1.57 9.05 1.41 9.09C1 10 0.67 10.95 0.43 11.93C0.68 11.86 0.95 11.8 1.22 11.74C5.07 10.88 10.51 10.92 17.08 14.21C23 17.16 27.7 17.13 30.88 16.42C30.98 16.4 31.09 16.37 31.2 16.35C31.21 16.1 31.21 15.85 31.21 15.6C31.21 14.98 31.18 14.36 31.11 13.75ZM30.69 19.64C26.9 20.3 21.78 20.05 15.69 17C9.77 14.04 5.07 14.08 1.89 14.79C1.19 14.94 0.56 15.13 0 15.34C0 15.43 0 15.51 0 15.6C0 24.23 6.98 31.21 15.6 31.21C22.83 31.21 28.91 26.31 30.69 19.64Z" fill="#7F57F1" fill-opacity="1.000000" fill-rule="evenodd"/>
</svg>
