<svg width="187.317017" height="32.000000" viewBox="0 0 187.317 32" fill="none" xmlns="http://www.w3.org/2000/svg" xmlns:xlink="http://www.w3.org/1999/xlink">
	<desc>
			Created with Pixso.
	</desc>
	<defs>
		<clipPath id="clip1_138">
			<rect id="Frame" rx="0.000000" width="186.536591" height="31.219513" transform="translate(0.390244 0.390244)" fill="white" fill-opacity="0"/>
		</clipPath>
	</defs>
	<rect id="Frame" rx="0.000000" width="186.536591" height="31.219513" transform="translate(0.390244 0.390244)" fill="#FFFFFF" fill-opacity="0"/>
	<g clip-path="url(#clip1_138)">
		<path id="Vector" d="M30.49 25.29L30.49 25.3L25.44 29.73C24.41 30.66 23.07 31.18 21.67 31.21L21.66 31.21L4.36 31.21C3.72 31.24 3.08 31.12 2.49 30.86C1.89 30.6 1.37 30.2 0.95 29.7C0.54 29.2 0.24 28.61 0.1 27.97C-0.04 27.35 -0.04 26.71 0.11 26.08L1.44 19.3C1.56 18.71 1.87 18.18 2.33 17.78L2.4 17.73C2.26 17.51 2.15 17.27 2.09 17.02C2.01 16.69 2.01 16.35 2.08 16.02L3.42 9.22L3.42 9.21C3.68 7.99 4.33 6.89 5.28 6.08L9.91 2.02C10.12 1.77 10.35 1.55 10.61 1.34C11.62 0.51 12.88 0.04 14.19 0L14.21 0L31.54 0.04C32.18 0.02 32.81 0.14 33.4 0.4C34 0.66 34.53 1.05 34.94 1.56C35.36 2.06 35.65 2.65 35.79 3.28C35.94 3.9 35.93 4.55 35.78 5.17L32.47 22.06L32.47 22.09C32.18 23.34 31.48 24.47 30.49 25.29Z" fill="#0B280D" fill-opacity="1.000000" fill-rule="nonzero"/>
		<path id="Vector" d="M31.27 1.61C31.72 1.58 32.18 1.67 32.59 1.85C33.01 2.03 33.38 2.31 33.67 2.66C33.96 3.02 34.16 3.43 34.26 3.88C34.36 4.32 34.36 4.78 34.25 5.22L30.96 22.13C30.72 23.13 30.17 24.03 29.37 24.69C28.57 25.34 27.58 25.71 26.55 25.75L9.31 25.75C8.86 25.77 8.4 25.69 7.99 25.5C7.57 25.32 7.2 25.04 6.91 24.69C6.62 24.34 6.42 23.92 6.31 23.48C6.21 23.03 6.21 22.57 6.32 22.13L7.65 15.29C7.73 14.96 7.92 14.66 8.18 14.44C8.45 14.22 8.78 14.1 9.12 14.09C12.27 14.2 15.29 14.44 18.1 15.45L18.73 19.36C18.74 19.46 18.79 19.54 18.87 19.6C18.94 19.66 19.03 19.69 19.13 19.69C19.24 19.68 19.35 19.65 19.44 19.6C19.54 19.54 19.61 19.46 19.67 19.36L21.79 15.45L26.04 14.11C26.15 14.08 26.24 14.02 26.31 13.94C26.39 13.86 26.44 13.76 26.46 13.65C26.49 13.56 26.47 13.46 26.43 13.38C26.38 13.29 26.31 13.23 26.22 13.19L22.49 11.86L21.87 7.95C21.85 7.85 21.8 7.77 21.73 7.71C21.65 7.64 21.56 7.61 21.46 7.62C21.35 7.62 21.24 7.65 21.15 7.71C21.06 7.77 20.98 7.85 20.93 7.95L18.8 11.86C15.72 12.74 12.53 13.2 9.32 13.21C9.17 13.23 9.01 13.2 8.87 13.14C8.72 13.09 8.6 12.99 8.5 12.88C8.4 12.76 8.32 12.62 8.29 12.47C8.25 12.32 8.25 12.16 8.29 12.01L9.62 5.17C9.85 4.17 10.4 3.27 11.2 2.62C11.99 1.96 12.98 1.59 14.01 1.56L31.27 1.61Z" fill="#99E39E" fill-opacity="1.000000" fill-rule="nonzero"/>
		<path id="Vector" d="M137.33 24.19C134.13 24.19 131.86 22.89 131.15 20.43L135.33 18.54C135.62 19.54 136.49 20.01 138.06 20.01C139.29 20.01 140.28 19.64 140.41 18.86C140.59 17.87 139.62 17.72 138.13 17.5C135.67 17.13 132.14 16.17 132.84 12.21C133.38 9.16 136.57 6.83 140.31 6.83C143.26 6.83 145.53 8.13 146.24 10.59L142.06 12.48C141.73 11.67 140.95 11.01 139.38 11.01C138.28 11.01 137.62 11.35 137.5 12.04C137.33 12.98 138.38 13.27 139.98 13.52C142.41 13.89 145.75 14.82 145.04 18.81C144.51 21.86 141.07 24.19 137.33 24.19Z" fill="#FFFFFF" fill-opacity="1.000000" fill-rule="nonzero"/>
		<path id="Vector" d="M162.73 23.8L167.42 23.8L171.11 12.07L172.05 21.78C172.18 23.18 173.3 23.87 174.68 23.87C176.07 23.87 177.38 23.16 178.06 21.68L182.42 12.09L181.71 23.8L186.38 23.8L186.83 9.93C186.88 7.91 185.72 6.83 183.75 6.83C181.95 6.83 180.29 7.64 179.49 9.48L175.67 18.22L174.93 9.41C174.78 7.57 173.44 6.83 171.69 6.83C169.66 6.83 168.08 7.89 167.41 9.85L162.73 23.8Z" fill="#FFFFFF" fill-opacity="1.000000" fill-rule="nonzero"/>
		<path id="Vector" d="M147.06 16.3C146.2 21.22 148.06 24.09 153.36 24.09C158.63 24.09 161.56 21.22 162.42 16.3L164.03 7.2L159.41 7.2L157.82 16.17C157.37 18.73 156.19 19.79 154.11 19.79C152.07 19.79 151.25 18.73 151.7 16.17L153.29 7.2L148.67 7.2L147.06 16.3Z" fill="#FFFFFF" fill-opacity="1.000000" fill-rule="nonzero"/>
		<path id="Vector" d="M115.62 23.8L120.25 23.77L120.96 19.74L123.06 19.74C127.95 19.74 131.14 17.38 131.85 13.39C132.53 9.53 130.02 7.2 125.02 7.2L118.55 7.2L115.62 23.8ZM122.44 11.38L124.41 11.38C126.41 11.38 127.33 12.09 127.1 13.39C126.85 14.8 125.74 15.56 123.67 15.56L121.7 15.56L122.44 11.38Z" fill="#FFFFFF" fill-opacity="1.000000" fill-rule="evenodd"/>
		<path id="Vector" d="M110.94 7.2L115.56 7.2L112.63 23.8L108.01 23.8L110.94 7.2Z" fill="#FFFFFF" fill-opacity="1.000000" fill-rule="nonzero"/>
		<path id="Vector" d="M89.93 15.51C89.06 20.45 92.2 24.17 97.3 24.17C102.39 24.17 106.84 20.45 107.72 15.51C108.59 10.57 105.45 6.85 100.35 6.85C95.26 6.85 90.8 10.57 89.93 15.51ZM102.97 15.51C102.54 17.97 100.4 19.86 98.06 19.86C95.71 19.86 94.24 17.97 94.68 15.51C95.11 13.05 97.24 11.16 99.59 11.16C101.94 11.16 103.4 13.05 102.97 15.51Z" fill="#FFFFFF" fill-opacity="1.000000" fill-rule="evenodd"/>
		<path id="Vector" d="M80.27 24.17C75.23 24.17 72.05 20.36 72.91 15.51C73.76 10.66 78.23 6.85 83.33 6.85C86.32 6.85 89 8.38 89.73 11.16L85.6 13.22C85.12 11.97 84.32 11.13 82.37 11.13C80 11.13 78.1 12.98 77.64 15.58C77.16 18.31 78.45 20.06 81 20.06C82.34 20.06 83.22 19.94 84.05 19.3L84.44 17.01L80.12 15.1L89.25 15.1L89.12 15.88L89.13 15.88L88.98 16.69L88.98 16.74L88.97 16.74L88.26 20.8C86.61 22.77 83.67 24.17 80.27 24.17Z" fill="#FFFFFF" fill-opacity="1.000000" fill-rule="nonzero"/>
		<path id="Vector" d="M54.61 15.51C53.74 20.45 56.88 24.17 61.98 24.17C67.07 24.17 71.52 20.45 72.4 15.51C73.27 10.57 70.13 6.85 65.03 6.85C59.94 6.85 55.49 10.57 54.61 15.51ZM67.65 15.51C67.22 17.97 65.09 19.86 62.74 19.86C60.39 19.86 58.93 17.97 59.36 15.51C59.79 13.05 61.92 11.16 64.27 11.16C66.62 11.16 68.08 13.05 67.65 15.51Z" fill="#FFFFFF" fill-opacity="1.000000" fill-rule="evenodd"/>
		<path id="Vector" d="M48.63 7.2L46.44 19.62L53.88 19.62L53.15 23.8L45.08 23.8C42.23 23.8 41.34 22.32 41.76 19.99L44.01 7.2L48.63 7.2Z" fill="#FFFFFF" fill-opacity="1.000000" fill-rule="nonzero"/>
	</g>
</svg>
