<svg width="118.776733" height="27.121155" viewBox="0 0 118.777 27.1212" fill="none" xmlns="http://www.w3.org/2000/svg" xmlns:xlink="http://www.w3.org/1999/xlink">
	<desc>
			Created with Pixso.
	</desc>
	<defs/>
	<path id="Vector" d="M24 4.97C24.82 5.94 25.5 7.02 26 8.19C26.75 9.88 27.13 11.71 27.12 13.57C27.12 17.16 25.7 20.6 23.16 23.14C20.62 25.68 17.18 27.11 13.59 27.12C11.86 27.12 10.13 26.78 8.52 26.12C7.38 25.66 6.3 25.04 5.32 24.29C3.8 23.13 2.55 21.66 1.64 19.98C0.72 18.3 0.18 16.45 0.03 14.55C-0.11 12.64 0.15 10.73 0.8 8.93C1.45 7.13 2.47 5.49 3.8 4.12C5.13 2.75 6.73 1.67 8.5 0.96C10.28 0.25 12.18 -0.07 14.09 0.01C16 0.09 17.87 0.57 19.58 1.42C21.29 2.28 22.8 3.49 24 4.97ZM18.1 3.76C16.69 3.1 15.15 2.76 13.58 2.76L13.59 2.74C11.77 2.73 9.98 3.19 8.38 4.07C6.79 4.95 5.44 6.22 4.46 7.76C3.49 9.29 2.92 11.06 2.81 12.87C2.69 14.69 3.04 16.51 3.82 18.16C4.28 17.68 4.55 17.07 4.61 16.42C4.79 15.19 5.36 14.06 6.23 13.19C7.11 12.31 8.24 11.74 9.46 11.57C10.15 11.5 10.8 11.21 11.29 10.72C11.78 10.24 12.1 9.6 12.17 8.92C12.35 7.69 12.92 6.56 13.79 5.69C14.67 4.81 15.8 4.24 17.02 4.07C17.4 4.01 17.76 3.91 18.1 3.76ZM5.67 20.24C5.55 20.36 5.43 20.46 5.31 20.57C6.09 21.47 7.01 22.25 8.03 22.86C8.3 22.44 8.47 21.97 8.52 21.49C8.71 20.26 9.28 19.13 10.16 18.25C11.04 17.38 12.18 16.81 13.4 16.64C14.09 16.57 14.74 16.26 15.23 15.78C15.72 15.29 16.02 14.64 16.09 13.96C16.27 12.73 16.84 11.6 17.71 10.72C18.58 9.85 19.72 9.28 20.94 9.11C21.63 9.04 22.28 8.73 22.75 8.23C22.8 8.18 22.85 8.14 22.88 8.09C22.27 7.03 21.47 6.09 20.52 5.31C19.7 6.08 18.65 6.58 17.52 6.74C16.83 6.78 16.18 7.08 15.69 7.57C15.18 8.07 14.87 8.75 14.82 9.48C14.65 10.7 14.08 11.83 13.2 12.71C12.33 13.58 11.2 14.15 9.97 14.33C9.29 14.38 8.64 14.69 8.16 15.19C7.67 15.67 7.36 16.32 7.29 17.01C7.13 18.24 6.56 19.37 5.67 20.24ZM70.2 7.53C70.04 7.78 69.96 8.08 69.96 8.39L69.96 8.41C69.96 8.61 70 8.81 70.08 8.99C70.16 9.18 70.28 9.34 70.42 9.48C70.57 9.62 70.74 9.73 70.93 9.79C71.12 9.86 71.32 9.89 71.52 9.88C71.83 9.87 72.12 9.77 72.37 9.6C72.62 9.43 72.81 9.18 72.92 8.9C73.03 8.62 73.05 8.31 72.99 8.01C72.92 7.72 72.77 7.45 72.55 7.24C72.33 7.03 72.05 6.89 71.76 6.84C71.46 6.79 71.15 6.82 70.87 6.95C70.6 7.07 70.36 7.27 70.2 7.53ZM37.39 7.64L34.39 7.64L34.39 19.77L37.39 19.77L37.39 7.64ZM93.07 13.45C93 11.56 91.49 10.38 89 10.38L89 10.4C86.52 10.4 84.91 11.57 84.89 13.37C84.89 14.77 85.83 15.72 87.62 16.09L89.35 16.46C90.07 16.61 90.35 16.71 90.35 17.19C90.35 17.67 89.95 17.96 89.07 17.96C88.19 17.96 87.65 17.56 87.56 16.88L84.67 16.88C84.8 18.75 86.47 19.97 89.02 19.97C91.57 19.97 93.3 18.75 93.3 16.85C93.3 15.46 92.52 14.72 90.69 14.33L88.77 13.94C88.1 13.8 87.77 13.65 87.77 13.18C87.77 12.71 88.14 12.39 88.97 12.39C89.8 12.39 90.34 12.8 90.34 13.45L93.07 13.45ZM64.13 10.39C61.29 10.39 59.45 12.18 59.45 15.18L59.45 15.19C59.45 18.24 61.24 19.98 64.13 19.98C67.02 19.98 68.82 18.18 68.82 15.18C68.82 12.18 66.97 10.39 64.13 10.39ZM107.66 10.57L104.76 10.57L104.71 19.77L107.71 19.77L107.71 14.36C107.69 14.17 107.71 13.98 107.77 13.8C107.82 13.62 107.92 13.45 108.04 13.31C108.17 13.17 108.32 13.05 108.5 12.97C108.67 12.9 108.86 12.86 109.04 12.86C109.86 12.86 110.31 13.36 110.31 14.28L110.31 19.77L113.16 19.77L113.16 14.34C113.14 14.15 113.16 13.96 113.21 13.78C113.27 13.6 113.36 13.44 113.48 13.3C113.61 13.16 113.76 13.05 113.93 12.97C114.1 12.89 114.29 12.85 114.47 12.86C115.31 12.86 115.76 13.32 115.76 14.32L115.76 19.77L118.76 19.77L118.76 13.52C118.79 13.11 118.74 12.7 118.6 12.32C118.46 11.93 118.24 11.58 117.96 11.29C117.68 10.99 117.34 10.76 116.96 10.61C116.58 10.45 116.17 10.38 115.76 10.4C115.14 10.37 114.52 10.55 114.01 10.91C113.5 11.28 113.13 11.8 112.94 12.4L112.88 12.4C112.79 11.8 112.47 11.27 112 10.9C111.53 10.53 110.93 10.35 110.33 10.4C109.75 10.39 109.17 10.57 108.7 10.92C108.23 11.27 107.88 11.77 107.72 12.34L107.66 12.34L107.66 10.57ZM43.26 10.4C40.42 10.4 38.58 12.19 38.58 15.19C38.58 18.24 40.38 19.99 43.26 19.99C46.14 19.99 47.94 18.19 47.94 15.19C47.94 12.19 46.1 10.4 43.26 10.4ZM80.24 19.89C82.52 19.89 83.85 18.18 83.85 15.18L83.89 15.2C83.89 12.2 82.52 10.48 80.22 10.44C79.63 10.41 79.05 10.57 78.55 10.88C78.06 11.2 77.67 11.66 77.44 12.21L77.38 12.21L77.38 10.57L74.38 10.57L74.38 22.71L77.38 22.71L77.38 18.19L77.44 18.19C77.68 18.72 78.08 19.17 78.58 19.48C79.08 19.78 79.66 19.92 80.24 19.89ZM51.95 20.36L49.07 20.36L49.07 20.37C49.24 22.03 50.89 23.22 53.54 23.22C56.39 23.22 58.32 21.86 58.32 19.67L58.32 10.57L55.32 10.57L55.32 12.24C55.1 11.7 54.71 11.24 54.22 10.92C53.73 10.61 53.15 10.45 52.56 10.48C50.26 10.48 48.88 12.29 48.88 15.16C48.88 18.03 50.33 19.7 52.52 19.7C53.09 19.73 53.65 19.59 54.14 19.29C54.63 19 55.01 18.57 55.25 18.06L55.31 18.06L55.31 19.74C55.31 20.64 54.71 21.26 53.57 21.26C53.24 21.3 52.91 21.24 52.61 21.08C52.32 20.91 52.09 20.66 51.95 20.36ZM100.42 19.75L103.31 19.75L103.35 10.57L100.35 10.57L100.35 15.75C100.38 15.96 100.36 16.18 100.3 16.39C100.24 16.6 100.13 16.79 99.99 16.96C99.84 17.12 99.66 17.25 99.47 17.34C99.27 17.43 99.05 17.48 98.83 17.48C97.9 17.48 97.34 16.9 97.34 15.81L97.34 10.57L94.34 10.57L94.34 16.5C94.31 16.95 94.37 17.41 94.52 17.84C94.67 18.27 94.92 18.66 95.24 18.99C95.56 19.31 95.94 19.57 96.37 19.73C96.79 19.9 97.25 19.97 97.7 19.95C98.3 19.98 98.89 19.81 99.37 19.46C99.86 19.11 100.21 18.61 100.36 18.04L100.42 18.04L100.42 19.75ZM72.96 10.59L69.96 10.59L69.96 19.77L72.96 19.77L72.96 10.59ZM10.58 24.01C11.56 24.29 12.57 24.43 13.58 24.43L13.58 24.38C15.24 24.37 16.87 23.98 18.35 23.25C19.83 22.52 21.12 21.45 22.13 20.14C23.13 18.83 23.82 17.31 24.15 15.69C24.48 14.07 24.43 12.39 24 10.8C23.24 11.33 22.37 11.68 21.44 11.8C20.76 11.87 20.12 12.17 19.63 12.66C19.14 13.15 18.83 13.79 18.76 14.48C18.59 15.7 18.02 16.84 17.14 17.71C16.26 18.58 15.13 19.15 13.9 19.33C13.22 19.4 12.58 19.7 12.09 20.19C11.6 20.68 11.29 21.32 11.22 22.01C11.13 22.71 10.92 23.38 10.58 24.01ZM64.13 12.56C65.15 12.56 65.8 13.53 65.8 15.18L65.8 15.2C65.8 16.87 65.19 17.8 64.17 17.8C63.15 17.8 62.52 16.83 62.52 15.2C62.52 13.57 63.11 12.56 64.13 12.56ZM43.26 12.57C44.28 12.57 44.93 13.54 44.93 15.19L44.93 15.2C44.93 16.87 44.29 17.79 43.26 17.79C42.23 17.79 41.6 16.81 41.6 15.19C41.6 13.57 42.24 12.57 43.26 12.57ZM79.13 12.79C80.18 12.79 80.85 13.72 80.85 15.18L80.85 15.2C80.85 16.65 80.18 17.56 79.13 17.56C78.08 17.56 77.39 16.63 77.4 15.18C77.41 13.73 78.08 12.79 79.13 12.79ZM53.59 12.8C54.65 12.8 55.32 13.72 55.32 15.18L55.32 15.19C55.32 16.67 54.66 17.48 53.59 17.48C52.52 17.48 51.88 16.65 51.88 15.18C51.88 13.71 52.53 12.8 53.59 12.8Z" fill="#FFFFFF" fill-opacity="1.000000" fill-rule="evenodd"/>
</svg>
