<svg width="32.000000" height="32.000000" viewBox="0 0 32 32" fill="none" xmlns="http://www.w3.org/2000/svg" xmlns:xlink="http://www.w3.org/1999/xlink">
	<desc>
			Created with Pixso.
	</desc>
	<defs>
		<clipPath id="clip1_956">
			<rect id="Frame" rx="0.000000" width="30.666666" height="30.666666" transform="translate(0.666667 0.666667)" fill="white" fill-opacity="0"/>
		</clipPath>
	</defs>
	<rect id="Frame" rx="0.000000" width="30.666666" height="30.666666" transform="translate(0.666667 0.666667)" fill="#FFFFFF" fill-opacity="0"/>
	<g clip-path="url(#clip1_956)">
		<path id="Vector" d="M22.73 13.5C22.93 12.91 23.46 12.68 24 12.43C24.6 12.16 24.89 12.02 25.19 12C25.53 11.97 25.86 12.05 26.15 12.21C26.53 12.42 26.8 12.83 27.07 13.16C28.33 14.69 28.96 15.45 29.19 16.29C29.37 16.97 29.37 17.68 29.19 18.36C28.85 19.59 27.79 20.62 27.01 21.58C26.61 22.06 26.41 22.31 26.15 22.45C25.86 22.61 25.53 22.68 25.19 22.66C24.89 22.63 24.6 22.5 24 22.22C23.46 21.98 22.93 21.75 22.73 21.15C22.66 20.95 22.66 20.72 22.66 20.26L22.66 14.4C22.66 13.94 22.66 13.71 22.73 13.5Z" stroke="#99E39E" stroke-opacity="1.000000" stroke-width="2.000000"/>
		<path id="Vector" d="M8.84 12.89C8.67 12.74 8.45 12.64 7.99 12.43C7.4 12.16 7.1 12.02 6.8 12C5.91 11.93 5.43 12.54 4.92 13.16C3.66 14.69 3.03 15.45 2.8 16.29C2.62 16.97 2.62 17.68 2.8 18.36C3.14 19.59 4.2 20.62 4.98 21.58C5.48 22.18 5.95 22.73 6.8 22.66C7.1 22.63 7.4 22.5 7.99 22.22C8.45 22.02 8.67 21.91 8.84 21.77C9.31 21.36 9.33 20.84 9.33 20.26L9.33 14.4C9.33 13.82 9.31 13.3 8.84 12.89Z" stroke="#99E39E" stroke-opacity="1.000000" stroke-width="2.000000"/>
		<path id="Vector" d="M6.66 12C6.66 7.58 10.84 4 16 4C21.15 4 25.33 7.58 25.33 12" stroke="#99E39E" stroke-opacity="1.000000" stroke-width="2.000000" stroke-linejoin="round" stroke-linecap="square"/>
		<path id="Vector" d="M25.33 22.66L25.33 23.73C25.33 26.08 22.94 28 20 28L17.33 28" stroke="#99E39E" stroke-opacity="1.000000" stroke-width="2.000000" stroke-linejoin="round" stroke-linecap="round"/>
	</g>
</svg>
