<svg width="32.000000" height="32.000000" viewBox="0 0 32 32" fill="none" xmlns="http://www.w3.org/2000/svg" xmlns:xlink="http://www.w3.org/1999/xlink">
	<desc>
			Created with Pixso.
	</desc>
	<defs>
		<clipPath id="clip1_966">
			<rect id="Frame" rx="0.000000" width="30.666666" height="30.666666" transform="translate(0.666667 0.666667)" fill="white" fill-opacity="0"/>
		</clipPath>
	</defs>
	<rect id="Frame" rx="0.000000" width="30.666666" height="30.666666" transform="translate(0.666667 0.666667)" fill="#FFFFFF" fill-opacity="0"/>
	<g clip-path="url(#clip1_966)">
		<path id="Vector" d="M27.69 24C28.69 24 29.49 23.37 30.2 22.49C31.66 20.69 29.26 19.25 28.35 18.55C27.42 17.83 26.38 17.42 25.33 17.33M23.99 14.66C25.84 14.66 27.33 13.17 27.33 11.33C27.33 9.49 25.84 8 23.99 8" stroke="#99E39E" stroke-opacity="1.000000" stroke-width="2.000000" stroke-linecap="round"/>
		<path id="Vector" d="M4.3 24C3.3 24 2.5 23.37 1.79 22.49C0.33 20.69 2.73 19.25 3.64 18.55C4.57 17.83 5.61 17.42 6.66 17.33M7.33 14.66C5.49 14.66 3.99 13.17 3.99 11.33C3.99 9.49 5.49 8 7.33 8" stroke="#99E39E" stroke-opacity="1.000000" stroke-width="2.000000" stroke-linecap="round"/>
		<path id="Vector" d="M8.01 24.86C9.08 25.91 10.26 26.66 11.75 26.66L20.24 26.66C21.73 26.66 22.91 25.91 23.98 24.86C26.15 22.71 22.58 20.99 21.22 20.14C18.02 18.17 13.97 18.17 10.77 20.14C9.41 20.99 5.84 22.71 8.01 24.86Z" stroke="#99E39E" stroke-opacity="1.000000" stroke-width="2.000000" stroke-linejoin="round"/>
		<path id="Vector" d="M16 14.66C13.42 14.66 11.33 12.57 11.33 10C11.33 7.42 13.42 5.33 16 5.33C18.57 5.33 20.66 7.42 20.66 10C20.66 12.57 18.57 14.66 16 14.66Z" stroke="#99E39E" stroke-opacity="1.000000" stroke-width="2.000000"/>
	</g>
</svg>
