<svg width="32.000000" height="32.000000" viewBox="0 0 32 32" fill="none" xmlns="http://www.w3.org/2000/svg" xmlns:xlink="http://www.w3.org/1999/xlink">
	<desc>
			Created with Pixso.
	</desc>
	<defs>
		<clipPath id="clip1_976">
			<rect id="Frame" rx="0.000000" width="30.666666" height="30.666666" transform="translate(0.666667 0.666667)" fill="white" fill-opacity="0"/>
		</clipPath>
	</defs>
	<rect id="Frame" rx="0.000000" width="30.666666" height="30.666666" transform="translate(0.666667 0.666667)" fill="#FFFFFF" fill-opacity="0"/>
	<g clip-path="url(#clip1_976)">
		<path id="Vector" d="M16 12.68C16.82 11.83 19.21 10.35 23.22 9.65C25.25 9.29 26.27 9.11 27.13 9.79C28 10.48 28 11.6 28 13.82L28 21.83C28 23.87 28 24.89 27.44 25.53C26.88 26.16 25.66 26.38 23.22 26.81C21.04 27.19 19.34 27.81 18.11 28.42C16.9 29.03 16.29 29.33 16 29.33C15.7 29.33 15.09 29.03 13.88 28.42C12.65 27.81 10.95 27.19 8.77 26.81C6.33 26.38 5.11 26.16 4.55 25.53C4 24.89 4 23.87 4 21.83L4 13.82C4 11.6 4 10.48 4.86 9.79C5.72 9.11 6.74 9.29 8.77 9.65C12.78 10.35 15.17 11.83 16 12.68Z" stroke="#99E39E" stroke-opacity="1.000000" stroke-width="2.000000" stroke-linejoin="round"/>
		<path id="Vector" d="M16 12L16 29.33" stroke="#99E39E" stroke-opacity="1.000000" stroke-width="2.000000" stroke-linejoin="round"/>
		<path id="Vector" d="M11.33 4.07C12.68 3.18 14.27 2.66 15.99 2.66C17.7 2.66 19.31 3.18 20.66 4.09M18.16 7.33C17.52 6.94 16.78 6.72 15.99 6.72C15.2 6.72 14.47 6.94 13.83 7.32" stroke="#99E39E" stroke-opacity="1.000000" stroke-width="2.000000" stroke-linecap="round"/>
	</g>
</svg>
