<svg width="121.846130" height="40.615234" viewBox="0 0 121.846 40.6152" fill="none" xmlns="http://www.w3.org/2000/svg" xmlns:xlink="http://www.w3.org/1999/xlink">
	<desc>
			Created with Pixso.
	</desc>
	<defs/>
	<g style="mix-blend-mode:normal">
		<path id="App Store" d="M75.7 31.26C72.91 31.26 71.03 29.82 70.89 27.56L72.83 27.56C73 28.76 74.17 29.52 75.85 29.52C77.43 29.52 78.58 28.71 78.58 27.59C78.58 26.63 77.85 26.05 76.18 25.66L74.55 25.27C72.27 24.73 71.23 23.63 71.23 21.78C71.23 19.54 73.07 18.04 75.82 18.04C78.38 18.04 80.25 19.54 80.36 21.66L78.46 21.66C78.27 20.5 77.26 19.77 75.79 19.77C74.25 19.77 73.22 20.51 73.22 21.65C73.22 22.55 73.88 23.07 75.52 23.45L76.91 23.79C79.5 24.39 80.56 25.44 80.56 27.34C80.56 29.75 78.69 31.26 75.7 31.26ZM46.19 30.95L44.11 30.95L42.95 27.61L38.15 27.61L36.99 30.95L34.98 30.95L39.53 18.35L41.63 18.35L46.19 30.95ZM82.77 21.82L82.77 19.49L84.59 19.49L84.59 21.82L86.58 21.82L86.58 23.34L84.59 23.34L84.59 28.06C84.59 29.02 84.98 29.45 85.89 29.45C86.16 29.45 86.32 29.43 86.58 29.4L86.58 30.91C86.28 30.96 85.94 31 85.59 31C83.58 31 82.77 30.3 82.77 28.53L82.77 23.34L81.32 23.34L81.32 21.82L82.77 21.82ZM40.63 20.64L40.48 20.64L38.65 25.97L42.46 25.97L40.63 20.64ZM96.03 26.36C96.03 29.34 94.39 31.13 91.71 31.13C89.02 31.13 87.38 29.34 87.38 26.36C87.38 23.4 89.03 21.6 91.71 21.6C94.38 21.6 96.03 23.4 96.03 26.36ZM107.17 29.59C108.27 29.59 109.02 29.19 109.35 28.48L111.1 28.48C110.69 30.12 109.22 31.13 107.12 31.13C104.49 31.13 102.88 29.33 102.88 26.39C102.88 23.46 104.53 21.6 107.11 21.6C109.67 21.6 111.21 23.34 111.21 26.23L111.21 26.86L104.73 26.86L104.73 26.96C104.79 28.57 105.72 29.59 107.17 29.59ZM49.24 23.29C49.79 22.25 50.87 21.62 52.12 21.62C54.45 21.62 55.93 23.44 55.93 26.36C55.93 29.28 54.45 31.11 52.14 31.11C50.83 31.11 49.79 30.53 49.31 29.56L49.17 29.56L49.17 34.01L47.36 34.01L47.36 21.78L49.1 21.78L49.1 23.29L49.24 23.29ZM59.39 23.29C59.94 22.25 61.02 21.62 62.27 21.62C64.6 21.62 66.08 23.44 66.08 26.36C66.08 29.28 64.6 31.11 62.29 31.11C60.98 31.11 59.94 30.53 59.46 29.56L59.32 29.56L59.32 34.01L57.51 34.01L57.51 21.78L59.25 21.78L59.25 23.29L59.39 23.29ZM99.25 30.95L97.44 30.95L97.44 21.78L99.18 21.78L99.18 23.18L99.32 23.18C99.58 22.28 100.6 21.62 101.8 21.62C102.07 21.62 102.41 21.65 102.6 21.7L102.6 23.49C102.45 23.44 101.91 23.38 101.59 23.38C100.22 23.38 99.25 24.25 99.25 25.53L99.25 30.95ZM109.36 25.52C109.32 24.08 108.44 23.14 107.1 23.14C105.76 23.14 104.83 24.08 104.73 25.52L109.36 25.52ZM89.25 26.36C89.25 28.37 90.13 29.52 91.71 29.52C93.28 29.52 94.17 28.36 94.17 26.36C94.17 24.37 93.28 23.21 91.71 23.21C90.13 23.21 89.25 24.37 89.25 26.36ZM49.14 26.37C49.14 28.28 50.09 29.48 51.61 29.48C53.15 29.48 54.07 28.31 54.07 26.36C54.07 24.42 53.15 23.25 51.61 23.25C50.09 23.25 49.14 24.45 49.14 26.37ZM59.29 26.37C59.29 28.28 60.24 29.48 61.76 29.48C63.3 29.48 64.22 28.31 64.22 26.36C64.22 24.42 63.3 23.25 61.76 23.25C60.24 23.25 59.29 24.45 59.29 26.37Z" fill="#FFFFFF" fill-opacity="1.000000" fill-rule="evenodd"/>
		<path id="Download on the" d="M59.99 14.92L60.9 14.92L60.9 8.54L59.99 8.54L59.99 14.92ZM74.33 15C74.97 15 75.5 14.7 75.78 14.2L75.85 14.2L75.85 14.92L76.72 14.92L76.72 8.54L75.81 8.54L75.81 11.06L75.74 11.06C75.49 10.56 74.96 10.26 74.33 10.26C73.18 10.26 72.43 11.17 72.43 12.62C72.43 14.08 73.17 15 74.33 15ZM97.14 14.92L98.05 14.92L98.05 12.24C98.05 11.55 98.46 11.08 99.2 11.08C99.84 11.08 100.18 11.45 100.18 12.18L100.18 14.92L101.09 14.92L101.09 11.96C101.09 10.87 100.49 10.25 99.51 10.25C98.82 10.25 98.33 10.56 98.11 11.07L98.04 11.07L98.04 8.54L97.14 8.54L97.14 14.92ZM36.19 8.84L36.19 14.92L38.39 14.92C40.2 14.92 41.25 13.8 41.25 11.86C41.25 9.95 40.19 8.84 38.39 8.84L36.19 8.84ZM94.02 9.19L94.02 10.35L93.29 10.35L93.29 11.12L94.02 11.12L94.02 13.71C94.02 14.59 94.42 14.95 95.43 14.95C95.61 14.95 95.78 14.93 95.92 14.9L95.92 14.15C95.8 14.16 95.72 14.17 95.58 14.17C95.13 14.17 94.93 13.96 94.93 13.48L94.93 11.12L95.92 11.12L95.92 10.35L94.93 10.35L94.93 9.19L94.02 9.19ZM37.14 9.7L38.29 9.7C39.55 9.7 40.29 10.5 40.29 11.87C40.29 13.27 39.56 14.06 38.29 14.06L37.14 14.06L37.14 9.7ZM44.47 15.01C45.81 15.01 46.63 14.11 46.63 12.62C46.63 11.14 45.8 10.24 44.47 10.24C43.13 10.24 42.3 11.14 42.3 12.62C42.3 14.11 43.12 15.01 44.47 15.01ZM54.67 14.92L55.58 14.92L55.58 12.24C55.58 11.52 56 11.07 56.67 11.07C57.34 11.07 57.66 11.44 57.66 12.18L57.66 14.92L58.57 14.92L58.57 11.95C58.57 10.86 58 10.24 56.98 10.24C56.29 10.24 55.83 10.55 55.61 11.06L55.54 11.06L55.54 10.33L54.67 10.33L54.67 14.92ZM64.31 15.01C65.65 15.01 66.47 14.11 66.47 12.62C66.47 11.14 65.64 10.24 64.31 10.24C62.97 10.24 62.14 11.14 62.14 12.62C62.14 14.11 62.96 15.01 64.31 15.01ZM68.94 15C69.54 15 70.04 14.74 70.32 14.28L70.39 14.28L70.39 14.92L71.26 14.92L71.26 11.79C71.26 10.82 70.61 10.24 69.46 10.24C68.42 10.24 67.68 10.75 67.58 11.54L68.46 11.54C68.56 11.21 68.91 11.03 69.42 11.03C70.04 11.03 70.36 11.3 70.36 11.79L70.36 12.18L69.11 12.25C68.02 12.32 67.41 12.8 67.41 13.62C67.41 14.46 68.05 15 68.94 15ZM82.59 15.01C83.93 15.01 84.75 14.11 84.75 12.62C84.75 11.14 83.93 10.24 82.59 10.24C81.25 10.24 80.42 11.14 80.42 12.62C80.42 14.11 81.25 15.01 82.59 15.01ZM85.95 14.92L86.86 14.92L86.86 12.24C86.86 11.52 87.28 11.07 87.95 11.07C88.62 11.07 88.94 11.44 88.94 12.18L88.94 14.92L89.85 14.92L89.85 11.95C89.85 10.86 89.29 10.24 88.26 10.24C87.57 10.24 87.12 10.55 86.89 11.06L86.82 11.06L86.82 10.33L85.95 10.33L85.95 14.92ZM105.48 13.68C105.31 14.04 104.94 14.24 104.39 14.24C103.67 14.24 103.2 13.73 103.17 12.92L103.17 12.87L106.41 12.87L106.41 12.56C106.41 11.12 105.64 10.24 104.36 10.24C103.07 10.24 102.25 11.17 102.25 12.64C102.25 14.11 103.05 15.01 104.37 15.01C105.42 15.01 106.15 14.5 106.36 13.68L105.48 13.68ZM53.63 10.33L52.72 10.33L51.9 13.83L51.83 13.83L50.89 10.33L50.02 10.33L49.07 13.83L49.01 13.83L48.19 10.33L47.27 10.33L48.53 14.92L49.46 14.92L50.41 11.54L50.48 11.54L51.43 14.92L52.37 14.92L53.63 10.33ZM104.36 11.01C105.03 11.01 105.47 11.48 105.49 12.2L103.17 12.2C103.22 11.49 103.69 11.01 104.36 11.01ZM44.47 14.2C43.68 14.2 43.24 13.63 43.24 12.62C43.24 11.63 43.68 11.05 44.47 11.05C45.25 11.05 45.7 11.63 45.7 12.62C45.7 13.62 45.25 14.2 44.47 14.2ZM64.31 14.2C63.52 14.2 63.08 13.63 63.08 12.62C63.08 11.63 63.52 11.05 64.31 11.05C65.09 11.05 65.54 11.63 65.54 12.62C65.54 13.62 65.09 14.2 64.31 14.2ZM82.59 14.2C81.8 14.2 81.36 13.63 81.36 12.62C81.36 11.63 81.8 11.05 82.59 11.05C83.37 11.05 83.82 11.63 83.82 12.62C83.82 13.62 83.37 14.2 82.59 14.2ZM74.59 11.07C75.35 11.07 75.83 11.67 75.83 12.63C75.83 13.59 75.35 14.18 74.59 14.18C73.82 14.18 73.37 13.6 73.37 12.62C73.37 11.66 73.83 11.07 74.59 11.07ZM69.17 14.23C68.68 14.23 68.32 13.99 68.32 13.58C68.32 13.18 68.6 12.96 69.24 12.92L70.36 12.85L70.36 13.23C70.36 13.8 69.85 14.23 69.17 14.23Z" fill="#FFFFFF" fill-opacity="1.000000" fill-rule="evenodd"/>
		<path id="Apple logo" d="M23.5 8.85C23.6 10.13 23.2 11.4 22.37 12.39C21.58 13.38 20.34 13.96 19.08 13.95C19 12.71 19.43 11.46 20.25 10.53C21.08 9.58 22.24 8.98 23.5 8.85ZM27.54 16.39C26.08 17.29 25.17 18.9 25.14 20.61C25.15 22.54 26.33 24.32 28.11 25.08C27.76 26.2 27.24 27.26 26.57 28.21C25.66 29.57 24.71 30.9 23.2 30.93C22.48 30.94 21.99 30.74 21.49 30.52C20.96 30.29 20.41 30.06 19.55 30.06C17.85 30.06 17.32 30.9 15.91 30.96C14.48 31.01 13.38 29.51 12.43 28.16C10.55 25.41 9.09 20.42 11.05 17.02C11.97 15.38 13.72 14.31 15.59 14.25C16.41 14.23 17.19 14.55 17.88 14.82C18.41 15.03 18.87 15.22 19.26 15.22C19.6 15.22 20.05 15.04 20.58 14.83C21.42 14.5 22.44 14.09 23.49 14.2C25.08 14.25 26.62 15.08 27.54 16.39Z" fill="#FFFFFF" fill-opacity="1.000000" fill-rule="evenodd"/>
	</g>
</svg>
