<svg width="101.088745" height="25.465332" viewBox="0 0 101.089 25.4653" fill="none" xmlns="http://www.w3.org/2000/svg" xmlns:xlink="http://www.w3.org/1999/xlink">
	<desc>
			Created with Pixso.
	</desc>
	<defs/>
	<path id="App Store" d="M65.58 22.71C62.78 22.71 60.91 21.27 60.77 19.02L62.71 19.02C62.87 20.22 64.04 20.98 65.73 20.98C67.3 20.98 68.45 20.16 68.45 19.05C68.45 18.08 67.72 17.51 66.05 17.12L64.43 16.72C62.15 16.19 61.11 15.09 61.11 13.24C61.11 10.99 62.94 9.5 65.69 9.5C68.25 9.5 70.12 10.99 70.24 13.11L68.33 13.11C68.15 11.95 67.13 11.23 65.67 11.23C64.12 11.23 63.09 11.97 63.09 13.11C63.09 14.01 63.75 14.52 65.4 14.91L66.79 15.25C69.37 15.85 70.44 16.9 70.44 18.79C70.44 21.2 68.57 22.71 65.58 22.71ZM36.06 22.41L33.98 22.41L32.83 19.06L28.02 19.06L26.86 22.41L24.85 22.41L29.4 9.8L31.51 9.8L36.06 22.41ZM72.65 13.27L72.65 10.95L74.46 10.95L74.46 13.27L76.45 13.27L76.45 14.8L74.46 14.8L74.46 19.52C74.46 20.48 74.86 20.9 75.76 20.9C76.04 20.9 76.2 20.88 76.45 20.86L76.45 22.37C76.16 22.42 75.82 22.46 75.47 22.46C73.45 22.46 72.65 21.75 72.65 19.98L72.65 14.8L71.19 14.8L71.19 13.27L72.65 13.27ZM30.5 12.09L30.36 12.09L28.52 17.42L32.33 17.42L30.5 12.09ZM85.91 17.82C85.91 20.79 84.26 22.59 81.58 22.59C78.89 22.59 77.25 20.79 77.25 17.82C77.25 14.86 78.9 13.05 81.58 13.05C84.25 13.05 85.91 14.86 85.91 17.82ZM97.05 21.04C98.14 21.04 98.89 20.65 99.23 19.93L100.97 19.93C100.56 21.57 99.09 22.59 97 22.59C94.37 22.59 92.76 20.78 92.76 17.85C92.76 14.92 94.4 13.05 96.99 13.05C99.54 13.05 101.08 14.8 101.08 17.68L101.08 18.31L94.6 18.31L94.6 18.41C94.66 20.02 95.6 21.04 97.05 21.04ZM39.11 14.75C39.67 13.7 40.75 13.08 41.99 13.08C44.33 13.08 45.8 14.9 45.8 17.82C45.8 20.73 44.33 22.56 42.01 22.56C40.71 22.56 39.67 21.99 39.19 21.02L39.04 21.02L39.04 25.46L37.23 25.46L37.23 13.23L38.98 13.23L38.98 14.75L39.11 14.75ZM49.26 14.75C49.82 13.7 50.9 13.08 52.15 13.08C54.48 13.08 55.95 14.9 55.95 17.82C55.95 20.73 54.48 22.56 52.16 22.56C50.86 22.56 49.82 21.99 49.34 21.02L49.2 21.02L49.2 25.46L47.38 25.46L47.38 13.23L49.13 13.23L49.13 14.75L49.26 14.75ZM89.13 22.41L87.31 22.41L87.31 13.23L89.06 13.23L89.06 14.64L89.19 14.64C89.45 13.74 90.47 13.08 91.67 13.08C91.94 13.08 92.29 13.1 92.48 13.15L92.48 14.94C92.33 14.89 91.79 14.83 91.47 14.83C90.09 14.83 89.13 15.7 89.13 16.99L89.13 22.41ZM99.24 16.97C99.2 15.53 98.32 14.6 96.98 14.6C95.64 14.6 94.7 15.54 94.6 16.97L99.24 16.97ZM79.12 17.82C79.12 19.82 80.01 20.98 81.58 20.98C83.15 20.98 84.04 19.81 84.04 17.82C84.04 15.83 83.15 14.66 81.58 14.66C80.01 14.66 79.12 15.83 79.12 17.82ZM39.01 17.82C39.01 19.74 39.96 20.93 41.48 20.93C43.02 20.93 43.94 19.76 43.94 17.82C43.94 15.88 43.02 14.71 41.49 14.71C39.96 14.71 39.01 15.9 39.01 17.82ZM49.16 17.82C49.16 19.74 50.11 20.93 51.63 20.93C53.17 20.93 54.09 19.76 54.09 17.82C54.09 15.88 53.17 14.71 51.64 14.71C50.11 14.71 49.16 15.9 49.16 17.82Z" fill="#FFFFFF" fill-opacity="1.000000" fill-rule="evenodd"/>
	<path id="Download on the" d="M49.87 6.38L50.78 6.38L50.78 0L49.87 0L49.87 6.38ZM64.21 6.45C64.84 6.45 65.38 6.15 65.65 5.65L65.72 5.65L65.72 6.38L66.59 6.38L66.59 0L65.68 0L65.68 2.52L65.62 2.52C65.37 2.01 64.84 1.71 64.21 1.71C63.05 1.71 62.3 2.63 62.3 4.08C62.3 5.53 63.04 6.45 64.21 6.45ZM87.02 6.38L87.92 6.38L87.92 3.7C87.92 3 88.33 2.53 89.08 2.53C89.72 2.53 90.06 2.9 90.06 3.64L90.06 6.38L90.96 6.38L90.96 3.41C90.96 2.32 90.36 1.7 89.38 1.7C88.69 1.7 88.21 2.01 87.98 2.52L87.91 2.52L87.91 0L87.02 0L87.02 6.38ZM26.07 0.29L26.07 6.38L28.27 6.38C30.08 6.38 31.13 5.26 31.13 3.32C31.13 1.4 30.07 0.29 28.27 0.29L26.07 0.29ZM83.9 0.64L83.9 1.81L83.17 1.81L83.17 2.57L83.9 2.57L83.9 5.16C83.9 6.05 84.3 6.4 85.31 6.4C85.48 6.4 85.65 6.38 85.8 6.35L85.8 5.6C85.67 5.61 85.59 5.62 85.45 5.62C85 5.62 84.8 5.41 84.8 4.93L84.8 2.57L85.8 2.57L85.8 1.81L84.8 1.81L84.8 0.64L83.9 0.64ZM27.01 1.15L28.16 1.15C29.42 1.15 30.17 1.95 30.17 3.33C30.17 4.72 29.43 5.52 28.16 5.52L27.01 5.52L27.01 1.15ZM34.34 6.46C35.68 6.46 36.5 5.57 36.5 4.08C36.5 2.6 35.68 1.7 34.34 1.7C33 1.7 32.17 2.6 32.17 4.08C32.17 5.57 33 6.46 34.34 6.46ZM44.54 6.38L45.45 6.38L45.45 3.69C45.45 2.97 45.88 2.53 46.55 2.53C47.22 2.53 47.54 2.89 47.54 3.63L47.54 6.38L48.44 6.38L48.44 3.4C48.44 2.31 47.88 1.7 46.85 1.7C46.16 1.7 45.71 2.01 45.48 2.52L45.42 2.52L45.42 1.79L44.54 1.79L44.54 6.38ZM54.18 6.46C55.52 6.46 56.35 5.57 56.35 4.08C56.35 2.6 55.52 1.7 54.18 1.7C52.84 1.7 52.02 2.6 52.02 4.08C52.02 5.57 52.84 6.46 54.18 6.46ZM58.81 6.45C59.42 6.45 59.92 6.19 60.19 5.73L60.26 5.73L60.26 6.38L61.13 6.38L61.13 3.24C61.13 2.27 60.49 1.7 59.34 1.7C58.29 1.7 57.55 2.2 57.46 2.99L58.34 2.99C58.44 2.67 58.79 2.48 59.29 2.48C59.91 2.48 60.23 2.76 60.23 3.24L60.23 3.64L58.99 3.71C57.9 3.78 57.28 4.25 57.28 5.08C57.28 5.92 57.93 6.45 58.81 6.45ZM72.47 6.46C73.81 6.46 74.63 5.57 74.63 4.08C74.63 2.6 73.8 1.7 72.47 1.7C71.13 1.7 70.3 2.6 70.3 4.08C70.3 5.57 71.12 6.46 72.47 6.46ZM75.83 6.38L76.73 6.38L76.73 3.69C76.73 2.97 77.16 2.53 77.83 2.53C78.5 2.53 78.82 2.89 78.82 3.63L78.82 6.38L79.73 6.38L79.73 3.4C79.73 2.31 79.16 1.7 78.14 1.7C77.45 1.7 76.99 2.01 76.77 2.52L76.7 2.52L76.7 1.79L75.83 1.79L75.83 6.38ZM95.36 5.14C95.19 5.49 94.81 5.69 94.27 5.69C93.54 5.69 93.07 5.18 93.04 4.38L93.04 4.33L96.29 4.33L96.29 4.01C96.29 2.57 95.51 1.7 94.24 1.7C92.94 1.7 92.12 2.63 92.12 4.1C92.12 5.56 92.93 6.46 94.24 6.46C95.29 6.46 96.02 5.96 96.23 5.14L95.36 5.14ZM43.5 1.79L42.59 1.79L41.78 5.29L41.71 5.29L40.76 1.79L39.89 1.79L38.95 5.29L38.88 5.29L38.06 1.79L37.14 1.79L38.41 6.38L39.34 6.38L40.28 3L40.35 3L41.3 6.38L42.24 6.38L43.5 1.79ZM94.23 2.47C94.9 2.47 95.34 2.94 95.36 3.66L93.04 3.66C93.09 2.94 93.56 2.47 94.23 2.47ZM34.34 5.66C33.55 5.66 33.11 5.08 33.11 4.08C33.11 3.08 33.55 2.5 34.34 2.5C35.12 2.5 35.57 3.08 35.57 4.08C35.57 5.08 35.12 5.66 34.34 5.66ZM54.18 5.66C53.4 5.66 52.95 5.08 52.95 4.08C52.95 3.08 53.4 2.5 54.18 2.5C54.97 2.5 55.41 3.08 55.41 4.08C55.41 5.08 54.97 5.66 54.18 5.66ZM72.47 5.66C71.68 5.66 71.24 5.08 71.24 4.08C71.24 3.08 71.68 2.5 72.47 2.5C73.25 2.5 73.7 3.08 73.7 4.08C73.7 5.08 73.25 5.66 72.47 5.66ZM64.47 2.52C65.23 2.52 65.7 3.13 65.7 4.08C65.7 5.04 65.23 5.64 64.47 5.64C63.7 5.64 63.24 5.05 63.24 4.08C63.24 3.11 63.7 2.52 64.47 2.52ZM59.04 5.69C58.55 5.69 58.19 5.45 58.19 5.04C58.19 4.63 58.48 4.42 59.11 4.37L60.23 4.3L60.23 4.69C60.23 5.25 59.73 5.69 59.04 5.69Z" fill="#FFFFFF" fill-opacity="1.000000" fill-rule="evenodd"/>
	<path id="Apple logo" d="M13.38 0.3C13.48 1.59 13.07 2.86 12.25 3.85C11.46 4.83 10.22 5.42 8.96 5.4C8.88 4.17 9.3 2.92 10.12 1.99C10.96 1.04 12.12 0.44 13.38 0.3ZM17.41 7.85C15.96 8.74 15.04 10.36 15.02 12.06C15.02 13.99 16.21 15.78 17.98 16.53C17.64 17.65 17.12 18.71 16.44 19.67C15.53 21.03 14.58 22.36 13.07 22.38C12.35 22.4 11.87 22.19 11.36 21.98C10.83 21.75 10.28 21.52 9.42 21.52C7.72 21.52 7.2 22.36 5.79 22.41C4.35 22.47 3.25 20.96 2.31 19.62C0.43 16.87 -1.04 11.87 0.93 8.47C1.84 6.83 3.59 5.76 5.47 5.7C6.29 5.69 7.07 6 7.76 6.28C8.28 6.49 8.75 6.68 9.13 6.68C9.47 6.68 9.93 6.5 10.46 6.29C11.29 5.95 12.32 5.55 13.36 5.66C14.96 5.71 16.5 6.54 17.41 7.85Z" fill="#FFFFFF" fill-opacity="1.000000" fill-rule="evenodd"/>
</svg>
