<svg width="35" height="35" viewBox="0 0 35 35" fill="none" xmlns="http://www.w3.org/2000/svg">
<g clip-path="url(#clip0_1_214)">
<path fill-rule="evenodd" clip-rule="evenodd" d="M21.1681 3.38845C22.7056 2.80163 24.3862 2.70115 25.9827 3.1006C27.244 3.41621 28.4048 4.03188 29.3691 4.88889C30.5415 4.45566 31.6537 3.87115 32.6771 3.14927L33.5417 4.37502L34.9991 4.72994C34.4993 6.78192 33.4991 8.67374 32.0928 10.2387C32.1135 10.4693 32.1242 10.7008 32.125 10.9326L32.125 10.9375C32.125 19.8478 27.8343 26.3886 21.6683 29.6705C15.5389 32.9329 7.70714 32.8958 0.729866 29.0196C0.122649 28.6822 -0.173519 27.9721 0.0140535 27.3033C0.201626 26.6345 0.823865 26.1819 1.51795 26.2095C3.94517 26.3061 6.34819 25.8296 8.53764 24.8342C6.37492 23.4871 4.81278 21.8918 3.723 20.1711C2.25466 17.8527 1.70068 15.3971 1.6005 13.1931C1.50062 10.9957 1.84966 9.01774 2.2164 7.5997C2.40067 6.8872 2.59188 6.30659 2.73934 5.89871C2.81316 5.69453 2.87627 5.53293 2.92244 5.41897C2.94553 5.36197 2.96441 5.31682 2.9783 5.28416L2.99531 5.24457L3.00084 5.23194L3.00282 5.22743L3.00362 5.22563C3.00396 5.22486 3.00428 5.22414 4.375 5.83335L5.60253 4.97128C6.93375 6.86686 8.71309 8.40379 10.7821 9.44519C12.4144 10.2668 14.1869 10.7598 15.9994 10.9019C15.9978 9.29093 16.4805 7.71581 17.3862 6.3817C18.3105 5.02013 19.6307 3.97528 21.1681 3.38845ZM4.9889 8.89706C4.72959 10.0513 4.52667 11.5006 4.59741 13.0569C4.67952 14.8634 5.12814 16.7828 6.25746 18.5659C7.38074 20.3395 9.23448 22.0692 12.2759 23.421C12.7736 23.6422 13.1123 24.1158 13.1607 24.6583C13.2092 25.2008 12.9597 25.7269 12.5091 26.0328C10.9282 27.1059 9.20114 27.9202 7.39247 28.4573C11.9566 29.5832 16.5201 29.0122 20.2588 27.0222C25.3944 24.2888 29.1243 18.7991 29.125 10.9398C29.1238 10.6273 29.0937 10.3156 29.035 10.0087C28.941 9.51693 29.0986 9.01066 29.4551 8.65909C29.7441 8.3741 30.014 8.07234 30.2637 7.75585C29.977 7.85893 29.6873 7.95455 29.395 8.04256C28.83 8.21268 28.2178 8.03581 27.8307 7.59062C27.154 6.8126 26.2548 6.26116 25.2545 6.01088C24.2542 5.7606 23.2012 5.82356 22.2379 6.19124C21.2746 6.55891 20.4474 7.21357 19.8683 8.06667C19.2892 8.91977 18.986 9.93015 18.9999 10.9612L19 10.9813V12.4396C19 13.2529 18.3519 13.918 17.5389 13.9391C14.7288 14.012 11.9443 13.3887 9.43333 12.1249C7.78146 11.2934 6.28173 10.2017 4.9889 8.89706Z" fill="#6B7280"/>
</g>
<defs>
<clipPath id="clip0_1_214">
<rect width="35" height="35" fill="white"/>
</clipPath>
</defs>
</svg>
